<?xml version="1.0" encoding="UTF-8" standalone="no"?>
<!DOCTYPE svg PUBLIC "-//W3C//DTD SVG 1.1//EN" "http://www.w3.org/Graphics/SVG/1.1/DTD/svg11.dtd">
<svg width="100%" height="100%" viewBox="0 0 3030 945" version="1.1" xmlns="http://www.w3.org/2000/svg" xmlns:xlink="http://www.w3.org/1999/xlink" xml:space="preserve" xmlns:serif="http://www.serif.com/" style="fill-rule:evenodd;clip-rule:evenodd;stroke-linecap:round;stroke-linejoin:round;stroke-miterlimit:10;">
    <g transform="matrix(1,0,0,1,-0.0833333,-160.5)">
        <g transform="matrix(1,0,0,1,-2.08333,-2.23932)">
            <g transform="matrix(1,0,0,1,255.037,518.873)">
                <g transform="matrix(150,0,0,150,561.495,270.113)">
                </g>
                <text x="509.713px" y="270.113px" style="font-family:'Cambria-Italic', 'Cambria', serif;font-style:italic;font-size:150px;">t</text>
            </g>
        </g>
        <g transform="matrix(1,0,0,1,-2.08333,-2.23932)">
            <g transform="matrix(1,0,0,1,512.323,235.273)">
                <g transform="matrix(150,0,0,150,233.537,178.958)">
                </g>
                <text x="161.76px" y="178.958px" style="font-family:'Cambria-Italic', 'Cambria', serif;font-style:italic;font-size:150px;">τ</text>
            </g>
        </g>
        <g transform="matrix(1,0,0,1,-2.08333,-2.23932)">
            <g transform="matrix(1,0,0,1,1566.48,235.273)">
                <g transform="matrix(150,0,0,150,566.43,178.958)">
                </g>
                <text x="494.653px" y="178.958px" style="font-family:'Cambria-Italic', 'Cambria', serif;font-style:italic;font-size:150px;">τ</text>
            </g>
        </g>
        <g transform="matrix(1,0,0,1,-2.08333,-2.23932)">
            <g transform="matrix(4.16667,0,0,4.16667,0.0833333,-2383.16)">
                <rect x="2" y="656.598" width="28.347" height="68.032" style="fill:rgb(219,124,23);"/>
            </g>
        </g>
        <g transform="matrix(1,0,0,1,-2.08333,-2.23932)">
            <g transform="matrix(4.16667,0,0,4.16667,0.0833333,-2574.04)">
                <rect x="333.827" y="656.826" width="28.346" height="113.386" style="fill:rgb(219,124,23);"/>
            </g>
        </g>
        <g transform="matrix(1,0,0,1,-2.08333,-2.23932)">
            <g transform="matrix(4.16667,0,0,4.16667,-1359.05,-1623.98)">
                <rect x="380.346" y="542.212" width="28.346" height="113.386" style="fill:rgb(124,55,219);"/>
            </g>
        </g>
        <g transform="matrix(1,0,0,1,-2.08333,-2.23932)">
            <g transform="matrix(4.16667,0,0,4.16667,0.0833333,-2359.16)">
                <path d="M639.064,718.898L639.302,718.895L639.46,718.892L639.698,718.888L639.897,718.885L640.016,718.882L640.135,718.88L640.294,718.877L640.413,718.874L640.611,718.87L640.77,718.866L640.928,718.863L641.127,718.858L641.246,718.854L641.444,718.849L641.563,718.845L641.643,718.843L641.722,718.84L641.881,718.835L641.96,718.833L642.04,718.83L642.198,718.824L642.278,718.822L642.436,718.816L642.674,718.806L642.754,718.803L642.912,718.796L643.032,718.791L643.111,718.787L643.23,718.782L643.547,718.766L643.627,718.762L643.706,718.757L643.825,718.751L643.904,718.746L643.984,718.742L644.063,718.737L644.143,718.732L644.301,718.722L644.42,718.714L644.5,718.709L644.579,718.704L644.658,718.698L644.738,718.693L644.857,718.684L644.936,718.678L645.016,718.672L645.095,718.666L645.174,718.659L645.254,718.653L645.333,718.646L645.412,718.64L645.492,718.633L645.65,718.619L645.73,718.611L645.769,718.608L645.849,718.6L645.928,718.592L646.008,718.585L646.166,718.569L646.246,718.56L646.325,718.552L646.404,718.543L646.484,718.534L646.642,718.516L646.722,718.507L646.801,718.497L646.88,718.488L646.96,718.478L647.039,718.467L647.079,718.462L647.158,718.452L647.238,718.441L647.317,718.431L647.396,718.42L647.436,718.414L647.515,718.403L647.595,718.391L647.634,718.385L647.714,718.373L647.793,718.361L647.833,718.355L647.872,718.349L647.912,718.342L647.992,718.33L648.031,718.323L648.111,718.31L648.15,718.304L648.23,718.29L648.269,718.283L648.309,718.276L648.388,718.263L648.428,718.255L648.468,718.248L648.507,718.241L648.547,718.234L648.626,718.219L648.706,718.204L648.745,718.197L648.825,718.181L648.864,718.173L648.984,718.149L649.023,718.141L649.103,718.125L649.182,718.108L649.222,718.1L649.261,718.091L649.301,718.082L649.341,718.074L649.38,718.065L649.42,718.056L649.499,718.038L649.579,718.02L649.618,718.01L649.698,717.992L649.737,717.982L649.777,717.973L649.817,717.963L649.856,717.953L649.936,717.933L650.015,717.913L650.095,717.893L650.134,717.882L650.174,717.872L650.214,717.861L650.253,717.851L650.333,717.829L650.372,717.818L650.452,717.796L650.491,717.785L650.531,717.773L650.571,717.762L650.61,717.75L650.65,717.739L650.69,717.727L650.729,717.715L650.809,717.691L650.848,717.679L650.928,717.655L650.968,717.642L651.007,717.63L651.087,717.604L651.126,717.591L651.166,717.579L651.206,717.565L651.245,717.552L651.325,717.526L651.364,717.512L651.404,717.498L651.444,717.485L651.483,717.471L651.563,717.443L651.602,717.429L651.642,717.414L651.682,717.4L651.721,717.385L651.761,717.371L651.801,717.356L651.84,717.341L651.96,717.296L651.999,717.28L652.039,717.265L652.079,717.249L652.118,717.234L652.198,717.202L652.237,717.186L652.277,717.169L652.317,717.153L652.356,717.136L652.396,717.12L652.436,717.103L652.475,717.086L652.555,717.052L652.594,717.035L652.674,716.999L652.713,716.982L652.793,716.946L652.832,716.928L652.872,716.909L652.912,716.891L652.952,716.872L652.991,716.854L653.071,716.816L653.11,716.797L653.15,716.777L653.19,716.758L653.229,716.738L653.269,716.719L653.309,716.699L653.348,716.679L653.388,716.659L653.428,716.638L653.467,716.618L653.547,716.576L653.586,716.555L653.666,716.513L653.705,716.492L653.785,716.448L653.824,716.426L653.944,716.36L653.983,716.337L654.063,716.291L654.102,716.268L654.182,716.222L654.221,716.198L654.301,716.15L654.34,716.126L654.38,716.102L654.42,716.077L654.459,716.053L654.539,716.003L654.578,715.978L654.618,715.953L654.658,715.927L654.697,715.901L654.777,715.849L654.816,715.823L654.856,715.797L654.936,715.743L654.975,715.716L655.055,715.662L655.094,715.634L655.174,715.578L655.213,715.55L655.253,715.522L655.293,715.493L655.332,715.465L655.372,715.436L655.412,715.406L655.451,715.377L655.491,715.348L655.531,715.318L655.57,715.288L655.61,715.258L655.65,715.227L655.689,715.197L655.809,715.104L655.848,715.073L655.928,715.009L655.967,714.977L656.007,714.945L656.047,714.912L656.086,714.88L656.166,714.814L656.205,714.78L656.245,714.747L656.285,714.713L656.324,714.679L656.404,714.611L656.443,714.576L656.523,714.506L656.562,714.471L656.642,714.399L656.681,714.363L656.761,714.291L656.801,714.254L656.84,714.217L656.88,714.18L656.92,714.142L656.999,714.067L657.039,714.029L657.078,713.99L657.118,713.952L657.158,713.913L657.197,713.874L657.237,713.835L657.277,713.795L657.316,713.755L657.396,713.675L657.435,713.634L657.475,713.594L657.554,713.511L657.594,713.47L657.634,713.428L657.673,713.386L657.713,713.343L657.753,713.301L657.793,713.258L657.832,713.215L657.872,713.172L657.912,713.128L657.951,713.084L658.031,712.996L658.07,712.951L658.15,712.861L658.189,712.816L658.269,712.724L658.308,712.678L658.388,712.584L658.427,712.537L658.507,712.443L658.546,712.395L658.586,712.347L658.626,712.298L658.665,712.249L658.705,712.201L658.745,712.151L658.785,712.102L658.824,712.052L658.904,711.952L658.943,711.901L659.023,711.799L659.062,711.747L659.102,711.696L659.142,711.644L659.181,711.591L659.221,711.539L659.261,711.486L659.3,711.432L659.34,711.379L659.38,711.325L659.419,711.271L659.459,711.217L659.499,711.162L659.538,711.107L659.578,711.052L659.618,710.996L659.657,710.941L659.697,710.884L659.737,710.828L659.777,710.771L659.816,710.714L659.856,710.657L659.896,710.599L659.935,710.541L660.015,710.425L660.054,710.366L660.094,710.307L660.134,710.247L660.173,710.188L660.213,710.127L660.253,710.067L660.292,710.006L660.372,709.884L660.411,709.823L660.491,709.699L660.53,709.636L660.61,709.51L660.649,709.447L660.729,709.319L660.769,709.254L660.808,709.19L660.848,709.125L660.888,709.059L660.927,708.994L660.967,708.928L661.007,708.861L661.046,708.795L661.126,708.661L661.165,708.593L661.245,708.457L661.284,708.388L661.324,708.32L661.364,708.25L661.403,708.181L661.483,708.041L661.522,707.971L661.602,707.829L661.641,707.757L661.681,707.686L661.721,707.613L661.761,707.541L661.8,707.468L661.88,707.322L661.919,707.248L661.999,707.1L662.038,707.025L662.118,706.875L662.157,706.799L662.237,706.647L662.276,706.57L662.356,706.416L662.395,706.338L662.475,706.182L662.514,706.103L662.594,705.945L662.633,705.865L662.713,705.705L662.753,705.624L662.792,705.543L662.832,705.462L662.872,705.38L662.911,705.298L662.991,705.134L663.03,705.051L663.07,704.967L663.11,704.884L663.149,704.8L663.189,704.715L663.229,704.631L663.268,704.546L663.308,704.461L663.348,704.375L663.387,704.289L663.427,704.203L663.467,704.116L663.506,704.029L663.546,703.942L663.586,703.854L663.625,703.766L663.705,703.59L663.745,703.501L663.784,703.411L663.824,703.322L663.864,703.232L663.903,703.142L663.983,702.96L664.022,702.869L664.062,702.777L664.102,702.686L664.141,702.593L664.181,702.501L664.221,702.408L664.26,702.315L664.34,702.127L664.379,702.033L664.419,701.939L664.459,701.844L664.498,701.749L664.538,701.653L664.578,701.558L664.617,701.461L664.657,701.365L664.737,701.171L664.776,701.074L664.856,700.878L664.895,700.78L664.975,700.582L665.014,700.483L665.094,700.283L665.133,700.183L665.173,700.082L665.213,699.982L665.252,699.88L665.292,699.779L665.332,699.677L665.371,699.575L665.411,699.473L665.451,699.37L665.49,699.267L665.53,699.163L665.57,699.06L665.609,698.956L665.649,698.852L665.729,698.642L665.768,698.537L665.808,698.432L665.848,698.326L665.887,698.22L665.927,698.113L665.967,698.007L666.006,697.9L666.046,697.792L666.086,697.685L666.125,697.577L666.205,697.361L666.244,697.252L666.324,697.034L666.363,696.924L666.443,696.704L666.482,696.594L666.562,696.372L666.601,696.261L666.721,695.925L666.76,695.813L666.84,695.587L666.879,695.474L666.919,695.361L666.959,695.247L666.998,695.133L667.038,695.019L667.078,694.904L667.117,694.79L667.157,694.675L667.197,694.559L667.236,694.444L667.316,694.212L667.355,694.096L667.395,693.979L667.435,693.863L667.474,693.746L667.514,693.628L667.554,693.511L667.593,693.393L667.673,693.157L667.713,693.038L667.752,692.92L667.832,692.682L667.871,692.562L667.911,692.443L667.951,692.323L667.99,692.203L668.03,692.083L668.07,691.962L668.109,691.841L668.189,691.599L668.228,691.478L668.268,691.356L668.308,691.235L668.347,691.113L668.387,690.99L668.427,690.868L668.466,690.746L668.546,690.5L668.585,690.377L668.625,690.253L668.665,690.13L668.705,690.006L668.744,689.882L668.824,689.634L668.863,689.509L668.903,689.385L668.943,689.26L668.982,689.135L669.022,689.01L669.062,688.884L669.101,688.759L669.181,688.507L669.22,688.381L669.3,688.129L669.339,688.002L669.379,687.876L669.419,687.749L669.458,687.622L669.538,687.368L669.577,687.241L669.617,687.113L669.697,686.858L669.736,686.73L669.776,686.603L669.816,686.474L669.895,686.218L669.935,686.09L670.014,685.833L670.054,685.704L670.093,685.575L670.133,685.446L670.212,685.188L670.252,685.059L670.331,684.8L670.411,684.541L670.45,684.411L670.53,684.152L670.609,683.892L670.649,683.762L670.728,683.502L670.808,683.242L670.847,683.112L670.927,682.851L671.006,682.59L671.046,682.46L671.125,682.199L671.244,681.807L671.284,681.676L671.323,681.546L671.442,681.154L671.482,681.023L671.601,680.631L671.681,680.37L671.839,679.848L671.879,679.718L671.958,679.457L672.038,679.196L672.077,679.066L672.157,678.805L672.196,678.675L672.276,678.415L672.355,678.156L672.395,678.026L672.474,677.766L672.553,677.507L672.673,677.12L672.752,676.862L672.792,676.733L672.871,676.475L672.911,676.347L672.95,676.218L673.03,675.962L673.069,675.834L673.149,675.578L673.188,675.451L673.228,675.323L673.268,675.196L673.307,675.069L673.387,674.815L673.426,674.688L673.466,674.562L673.506,674.435L673.545,674.309L673.625,674.057L673.665,673.932L673.704,673.806L673.784,673.556L673.823,673.431L673.863,673.306L673.903,673.182L673.942,673.058L674.022,672.81L674.061,672.686L674.141,672.44L674.18,672.317L674.26,672.071L674.299,671.949L674.379,671.705L674.418,671.584L674.498,671.342L674.537,671.221L674.577,671.1L674.657,670.86L674.696,670.741L674.736,670.621L674.776,670.502L674.815,670.383L674.895,670.147L674.934,670.029L674.974,669.911L675.014,669.794L675.053,669.677L675.093,669.56L675.133,669.444L675.172,669.328L675.252,669.096L675.291,668.981L675.331,668.866L675.371,668.752L675.41,668.638L675.45,668.524L675.53,668.298L675.569,668.185L675.649,667.961L675.688,667.849L675.768,667.627L675.807,667.516L675.887,667.296L675.926,667.187L676.006,666.969L676.045,666.861L676.085,666.753L676.125,666.646L676.164,666.539L676.204,666.432L676.244,666.326L676.283,666.22L676.363,666.01L676.402,665.905L676.442,665.801L676.482,665.698L676.522,665.594L676.561,665.492L676.601,665.389L676.641,665.287L676.68,665.186L676.76,664.984L676.799,664.884L676.839,664.784L676.879,664.685L676.918,664.587L676.958,664.488L676.998,664.39L677.037,664.293L677.077,664.196L677.117,664.1L677.156,664.004L677.236,663.814L677.275,663.72L677.355,663.532L677.394,663.439L677.474,663.255L677.514,663.164L677.553,663.073L677.633,662.893L677.672,662.804L677.712,662.715L677.752,662.627L677.791,662.539L677.871,662.365L677.91,662.279L677.99,662.109L678.029,662.024L678.069,661.94L678.109,661.857L678.148,661.774L678.188,661.692L678.228,661.611L678.267,661.53L678.307,661.449L678.347,661.369L678.386,661.29L678.426,661.211L678.506,661.055L678.545,660.978L678.625,660.826L678.664,660.751L678.704,660.676L678.744,660.602L678.783,660.529L678.823,660.456L678.863,660.384L678.902,660.312L678.942,660.241L678.982,660.171L679.021,660.101L679.061,660.032L679.101,659.964L679.14,659.896L679.18,659.828L679.22,659.762L679.259,659.696L679.299,659.63L679.339,659.566L679.378,659.502L679.418,659.438L679.458,659.375L679.498,659.313L679.537,659.252L679.577,659.191L679.617,659.131L679.656,659.071L679.696,659.012L679.736,658.954L679.775,658.896L679.815,658.839L679.855,658.783L679.894,658.727L679.934,658.673L679.974,658.618L680.013,658.565L680.093,658.459L680.132,658.408L680.172,658.357L680.212,658.307L680.251,658.257L680.291,658.208L680.331,658.16L680.37,658.113L680.41,658.066L680.49,657.974L680.529,657.93L680.609,657.842L680.648,657.8L680.688,657.758L680.728,657.717L680.767,657.676L680.807,657.636L680.886,657.559L680.926,657.521L680.966,657.484L681.005,657.448L681.045,657.412L681.085,657.377L681.124,657.343L681.204,657.277L681.243,657.245L681.323,657.183L681.362,657.154L681.402,657.124L681.482,657.068L681.521,657.041L681.561,657.015L681.601,656.99L681.64,656.965L681.68,656.941L681.72,656.918L681.759,656.895L681.799,656.873L681.839,656.852L681.878,656.832L681.918,656.812L681.958,656.793L681.997,656.775L682.077,656.741L682.116,656.725L682.156,656.71L682.196,656.696L682.235,656.682L682.275,656.669L682.315,656.657L682.354,656.645L682.394,656.634L682.434,656.624L682.474,656.615L682.513,656.606L682.593,656.592L682.632,656.585L682.712,656.575L682.751,656.571L682.791,656.567L682.831,656.565L682.87,656.563L682.95,656.561L683.029,656.563L683.108,656.567L683.188,656.575L683.227,656.58L683.267,656.585L683.307,656.592L683.346,656.599L683.386,656.606L683.466,656.624L683.505,656.634L683.545,656.645L683.585,656.657L683.624,656.669L683.664,656.682L683.704,656.696L683.743,656.71L683.783,656.725L683.823,656.741L683.862,656.758L683.902,656.775L683.942,656.793L683.981,656.812L684.061,656.852L684.1,656.873L684.14,656.895L684.18,656.918L684.219,656.941L684.259,656.965L684.299,656.99L684.338,657.015L684.378,657.041L684.418,657.068L684.458,657.096L684.497,657.124L684.537,657.154L684.577,657.183L684.616,657.214L684.656,657.245L684.696,657.277L684.735,657.31L684.775,657.343L684.815,657.377L684.854,657.412L684.934,657.484L684.973,657.521L685.053,657.597L685.132,657.676L685.172,657.717L685.251,657.8L685.291,657.842L685.33,657.886L685.41,657.974L685.45,658.02L685.489,658.066L685.569,658.16L685.608,658.208L685.648,658.257L685.688,658.307L685.727,658.357L685.807,658.459L685.846,658.512L685.926,658.618L685.965,658.673L686.005,658.727L686.045,658.783L686.084,658.839L686.124,658.896L686.164,658.954L686.203,659.012L686.243,659.071L686.283,659.131L686.322,659.191L686.402,659.313L686.442,659.375L686.481,659.438L686.561,659.566L686.6,659.63L686.68,659.762L686.719,659.828L686.799,659.964L686.838,660.032L686.878,660.101L686.918,660.171L686.957,660.241L686.997,660.312L687.037,660.384L687.076,660.456L687.156,660.602L687.195,660.676L687.275,660.826L687.314,660.902L687.354,660.978L687.394,661.055L687.434,661.133L687.473,661.211L687.553,661.369L687.592,661.449L687.672,661.611L687.711,661.692L687.751,661.774L687.791,661.857L687.83,661.94L687.87,662.024L687.91,662.109L687.949,662.194L687.989,662.279L688.029,662.365L688.068,662.452L688.108,662.539L688.148,662.627L688.187,662.715L688.267,662.893L688.306,662.983L688.346,663.073L688.426,663.255L688.465,663.347L688.505,663.439L688.545,663.532L688.584,663.626L688.664,663.814L688.703,663.909L688.743,664.004L688.783,664.1L688.822,664.196L688.902,664.39L688.941,664.488L688.981,664.587L689.021,664.685L689.06,664.784L689.14,664.984L689.179,665.085L689.259,665.287L689.298,665.389L689.338,665.492L689.378,665.594L689.418,665.698L689.457,665.801L689.497,665.905L689.537,666.01L689.576,666.115L689.616,666.22L689.656,666.326L689.695,666.432L689.775,666.646L689.814,666.753L689.894,666.969L689.933,667.078L690.013,667.296L690.052,667.406L690.092,667.516L690.132,667.627L690.171,667.738L690.211,667.849L690.251,667.961L690.29,668.073L690.33,668.185L690.41,668.411L690.449,668.524L690.529,668.752L690.568,668.866L690.648,669.096L690.687,669.212L690.767,669.444L690.806,669.56L690.886,669.794L690.925,669.911L691.005,670.147L691.044,670.265L691.084,670.383L691.124,670.502L691.163,670.621L691.203,670.741L691.243,670.86L691.282,670.98L691.322,671.1L691.402,671.342L691.441,671.463L691.521,671.705L691.56,671.827L691.64,672.071L691.679,672.194L691.759,672.44L691.798,672.563L691.838,672.686L691.878,672.81L691.917,672.934L691.997,673.182L692.036,673.306L692.116,673.556L692.155,673.681L692.195,673.806L692.235,673.932L692.274,674.057L692.394,674.435L692.433,674.562L692.473,674.688L692.513,674.815L692.552,674.942L692.632,675.196L692.671,675.323L692.711,675.451L692.751,675.578L692.79,675.706L692.87,675.962L692.909,676.09L692.949,676.218L692.989,676.347L693.028,676.475L693.108,676.733L693.147,676.862L693.227,677.12L693.306,677.378L693.346,677.507L693.425,677.766L693.505,678.026L693.544,678.156L693.624,678.415L693.703,678.675L693.743,678.805L693.822,679.066L693.901,679.326L693.941,679.457L694.02,679.718L694.06,679.848L694.139,680.109L694.219,680.37L694.338,680.762L694.417,681.023L694.457,681.154L694.536,681.415L694.576,681.546L694.616,681.676L694.655,681.807L694.735,682.068L694.774,682.199L694.854,682.46L694.973,682.851L695.052,683.112L695.131,683.372L695.171,683.502L695.25,683.762L695.37,684.152L695.449,684.411L695.489,684.541L695.647,685.059L695.687,685.188L695.766,685.446L695.846,685.704L695.885,685.833L695.965,686.09L696.004,686.218L696.084,686.474L696.123,686.603L696.163,686.73L696.203,686.858L696.282,687.113L696.322,687.241L696.362,687.368L696.401,687.495L696.481,687.749L696.52,687.876L696.56,688.002L696.6,688.129L696.639,688.255L696.719,688.507L696.758,688.633L696.798,688.759L696.838,688.884L696.877,689.01L696.957,689.26L696.996,689.385L697.036,689.509L697.076,689.634L697.115,689.758L697.235,690.13L697.274,690.253L697.314,690.377L697.354,690.5L697.393,690.623L697.433,690.746L697.473,690.868L697.512,690.99L697.552,691.113L697.592,691.235L697.631,691.356L697.671,691.478L697.711,691.599L697.75,691.72L697.83,691.962L697.869,692.083L697.949,692.323L697.988,692.443L698.028,692.562L698.068,692.682L698.107,692.801L698.147,692.92L698.187,693.038L698.227,693.157L698.266,693.275L698.346,693.511L698.385,693.628L698.425,693.746L698.465,693.863L698.504,693.979L698.544,694.096L698.584,694.212L698.623,694.328L698.663,694.444L698.703,694.559L698.742,694.675L698.782,694.79L698.822,694.904L698.861,695.019L698.941,695.247L698.98,695.361L699.06,695.587L699.099,695.7L699.139,695.813L699.219,696.037L699.258,696.149L699.298,696.261L699.338,696.372L699.377,696.483L699.417,696.594L699.457,696.704L699.496,696.814L699.576,697.034L699.615,697.143L699.695,697.361L699.734,697.469L699.814,697.685L699.853,697.792L699.893,697.9L699.933,698.007L699.972,698.113L700.012,698.22L700.052,698.326L700.091,698.432L700.211,698.747L700.25,698.852L700.33,699.06L700.369,699.163L700.409,699.267L700.449,699.37L700.488,699.473L700.568,699.677L700.607,699.779L700.647,699.88L700.687,699.982L700.726,700.082L700.766,700.183L700.806,700.283L700.845,700.383L700.885,700.483L700.925,700.582L700.964,700.681L701.004,700.78L701.044,700.878L701.083,700.976L701.123,701.074L701.203,701.268L701.242,701.365L701.282,701.461L701.322,701.558L701.361,701.653L701.401,701.749L701.441,701.844L701.48,701.939L701.56,702.127L701.599,702.221L701.639,702.315L701.679,702.408L701.718,702.501L701.758,702.593L701.798,702.686L701.837,702.777L701.877,702.869L701.917,702.96L701.956,703.051L701.996,703.142L702.036,703.232L702.075,703.322L702.115,703.411L702.155,703.501L702.195,703.59L702.234,703.678L702.314,703.854L702.353,703.942L702.433,704.116L702.472,704.203L702.552,704.375L702.591,704.461L702.671,704.631L702.71,704.715L702.75,704.8L702.79,704.884L702.829,704.967L702.869,705.051L702.909,705.134L702.948,705.216L703.028,705.38L703.067,705.462L703.187,705.705L703.226,705.785L703.306,705.945L703.345,706.024L703.425,706.182L703.464,706.26L703.544,706.416L703.583,706.493L703.663,706.647L703.702,706.723L703.782,706.875L703.821,706.95L703.901,707.1L703.94,707.174L704.02,707.322L704.059,707.395L704.139,707.541L704.179,707.613L704.218,707.686L704.258,707.757L704.298,707.829L704.337,707.9L704.377,707.971L704.417,708.041L704.456,708.111L704.496,708.181L704.536,708.25L704.575,708.32L704.615,708.388L704.655,708.457L704.694,708.525L704.774,708.661L704.813,708.728L704.853,708.795L704.893,708.861L704.932,708.928L704.972,708.994L705.012,709.059L705.051,709.125L705.091,709.19L705.131,709.254L705.171,709.319L705.21,709.383L705.25,709.447L705.29,709.51L705.329,709.573L705.409,709.699L705.448,709.761L705.488,709.823L705.528,709.884L705.567,709.945L705.647,710.067L705.686,710.127L705.726,710.188L705.766,710.247L705.805,710.307L705.885,710.425L705.924,710.483L706.004,710.599L706.043,710.657L706.163,710.828L706.202,710.884L706.242,710.941L706.282,710.996L706.321,711.052L706.401,711.162L706.44,711.217L706.52,711.325L706.559,711.379L706.599,711.432L706.639,711.486L706.678,711.539L706.718,711.591L706.758,711.644L706.797,711.696L706.837,711.747L706.877,711.799L706.916,711.85L706.996,711.952L707.035,712.002L707.115,712.102L707.155,712.151L707.194,712.201L707.234,712.249L707.274,712.298L707.313,712.347L707.393,712.443L707.432,712.49L707.512,712.584L707.551,712.631L707.591,712.678L707.631,712.724L707.67,712.77L707.71,712.816L707.75,712.861L707.789,712.906L707.869,712.996L707.908,713.04L707.988,713.128L708.027,713.172L708.147,713.301L708.186,713.343L708.226,713.386L708.266,713.428L708.305,713.47L708.385,713.552L708.424,713.594L708.464,713.634L708.543,713.715L708.623,713.795L708.662,713.835L708.742,713.913L708.781,713.952L708.821,713.99L708.9,714.067L708.94,714.105L708.98,714.142L709.019,714.18L709.139,714.291L709.178,714.327L709.258,714.399L709.297,714.435L709.337,714.471L709.377,714.506L709.416,714.541L709.496,714.611L709.535,714.645L709.615,714.713L709.654,714.747L709.694,714.78L709.734,714.814L709.773,714.847L709.813,714.88L709.853,714.912L709.892,714.945L709.972,715.009L710.011,715.041L710.051,715.073L710.131,715.135L710.17,715.166L710.21,715.197L710.25,715.227L710.289,715.258L710.369,715.318L710.408,715.348L710.488,715.406L710.527,715.436L710.567,715.465L710.607,715.493L710.646,715.522L710.726,715.578L710.765,715.606L710.845,715.662L710.884,715.689L710.964,715.743L711.003,715.77L711.043,715.797L711.123,715.849L711.162,715.875L711.242,715.927L711.281,715.953L711.361,716.003L711.4,716.028L711.44,716.053L711.48,716.077L711.519,716.102L711.599,716.15L711.638,716.174L711.718,716.222L711.757,716.245L711.837,716.291L711.876,716.314L711.956,716.36L711.995,716.382L712.115,716.448L712.154,716.47L712.194,716.492L712.234,716.513L712.273,716.534L712.353,716.576L712.392,716.597L712.432,716.618L712.472,716.638L712.511,716.659L712.591,716.699L712.63,716.719L712.67,716.738L712.71,716.758L712.749,716.777L712.789,716.797L712.829,716.816L712.868,716.835L712.908,716.854L712.948,716.872L712.987,716.891L713.027,716.909L713.067,716.928L713.107,716.946L713.146,716.964L713.186,716.982L713.226,716.999L713.265,717.017L713.305,717.035L713.345,717.052L713.384,717.069L713.464,717.103L713.503,717.12L713.543,717.136L713.583,717.153L713.622,717.169L713.662,717.186L713.702,717.202L713.741,717.218L713.781,717.234L713.821,717.249L713.86,717.265L713.9,717.28L713.94,717.296L713.979,717.311L714.099,717.356L714.138,717.371L714.178,717.385L714.218,717.4L714.257,717.414L714.297,717.429L714.337,717.443L714.376,717.457L714.456,717.485L714.495,717.498L714.575,717.526L714.614,717.539L714.694,717.565L714.733,717.579L714.773,717.591L714.813,717.604L714.852,717.617L714.892,717.63L714.932,717.642L714.971,717.655L715.091,717.691L715.13,717.703L715.21,717.727L715.249,717.739L715.289,717.75L715.329,717.762L715.368,717.773L715.408,717.785L715.448,717.796L715.487,717.807L715.567,717.829L715.606,717.84L715.646,717.851L715.686,717.861L715.725,717.872L715.765,717.882L715.805,717.893L715.844,717.903L715.884,717.913L715.963,717.933L716.083,717.963L716.122,717.973L716.162,717.982L716.202,717.992L716.241,718.001L716.281,718.01L716.321,718.02L716.479,718.056L716.559,718.074L716.598,718.082L716.678,718.1L716.717,718.108L716.797,718.125L716.836,718.133L716.956,718.157L716.995,718.165L717.075,718.181L717.114,718.189L717.154,718.197L717.194,718.204L717.352,718.234L717.432,718.248L717.471,718.255L717.511,718.263L717.59,718.276L717.67,718.29L717.749,718.304L717.789,718.31L717.868,718.323L717.908,718.33L717.987,718.342L718.027,718.349L718.067,718.355L718.106,718.361L718.186,718.373L718.265,718.385L718.305,718.391L718.384,718.403L718.463,718.414L718.543,718.425L718.582,718.431L718.662,718.441L718.741,718.452L718.82,718.462L718.9,718.473L718.94,718.478L719.019,718.488L719.098,718.497L719.178,718.507L719.336,718.525L719.416,718.534L719.574,718.552L719.654,718.56L719.733,718.569L719.812,718.577L719.892,718.585L719.971,718.592L720.051,718.6L720.13,718.608L720.209,718.615L720.289,718.622L720.447,718.636L720.527,718.643L720.606,718.65L720.685,718.656L720.804,718.666L720.884,718.672L720.963,718.678L721.043,718.684L721.162,718.693L721.241,718.698L721.32,718.704L721.4,718.709L721.479,718.714L721.558,718.72L721.638,718.725L721.717,718.73L721.836,718.737L721.916,718.742L721.995,718.746L722.074,718.751L722.193,718.757L722.273,718.762L722.471,718.772L722.59,718.778L722.669,718.782L722.788,718.787L722.868,718.791L722.987,718.796L723.146,718.803L723.265,718.808L723.344,718.811L723.463,718.816L723.622,718.822L723.701,718.824L723.86,718.83L723.939,718.833L724.098,718.838L724.177,718.84L724.257,718.843L724.336,718.845L724.455,718.849L724.693,718.855L724.772,718.858L724.892,718.861L725.05,718.865L725.209,718.868L725.407,718.873L725.606,718.877L725.764,718.88L725.884,718.882L726.003,718.885L726.598,718.895L726.756,718.897L726.955,718.9L727.272,718.904L727.391,718.905L727.59,718.908L727.669,718.908" style="fill:rgb(191,191,191);"/>
            </g>
        </g>
        <g transform="matrix(1,0,0,1,-2.08333,-2.23932)">
            <g transform="matrix(4.16667,0,0,4.16667,0.0833333,-2476.72)">
                <path d="M25.453,697.341L16.454,701.844L25.456,706.341L25.453,697.341Z"/>
            </g>
        </g>
        <g transform="matrix(1,0,0,1,-2.08333,-2.23932)">
            <g transform="matrix(4.16667,0,0,4.16667,0.0833333,-2477.54)">
                <path d="M340.453,697.439L349.454,701.936L340.456,706.439L340.453,697.439Z"/>
            </g>
        </g>
        <g transform="matrix(1,0,0,1,-2.08333,-2.23932)">
            <g transform="matrix(4.16667,-0.00130781,-0.00130781,-4.16667,1.00131,3372.2)">
                <path d="M23.654,701.89C67.519,701.89 298.389,701.89 342.254,701.89" style="fill:none;fill-rule:nonzero;stroke:black;stroke-width:3px;"/>
            </g>
        </g>
        <g transform="matrix(1,0,0,1,-2.08333,-2.23932)">
            <g transform="matrix(4.16667,0,0,4.16667,0.0833333,-2478.45)">
                <path d="M358.345,697.549L349.346,702.052L358.348,706.549L358.345,697.549Z"/>
            </g>
        </g>
        <g transform="matrix(1,0,0,1,-2.08333,-2.23932)">
            <g transform="matrix(4.16667,0,0,4.16667,0.0833333,-2479.27)">
                <path d="M673.345,697.647L682.346,702.144L673.348,706.647L673.345,697.647Z"/>
            </g>
        </g>
        <g transform="matrix(1,0,0,1,-2.08333,-2.23932)">
            <g transform="matrix(4.16667,-0.0013078,-0.0013078,-4.16667,1.00164,3372.63)">
                <path d="M356.546,702.098C400.411,702.098 631.282,702.098 675.147,702.098" style="fill:none;fill-rule:nonzero;stroke:black;stroke-width:3px;"/>
            </g>
        </g>
        <g transform="matrix(1,0,0,1,-2.08333,-2.23932)">
            <g transform="matrix(4.16667,0,0,4.16667,-1359.05,-1720.07)">
                <path d="M636,605.936L645,610.436L636,614.936L636,605.936Z" style="fill-rule:nonzero;"/>
            </g>
        </g>
        <g transform="matrix(1,0,0,1,-2.08333,-2.23932)">
            <g transform="matrix(4.16667,0,0,4.16667,-1359.05,-1720.07)">
                <path d="M397.354,610.436L637.8,610.436" style="fill:none;fill-rule:nonzero;stroke:black;stroke-width:3px;"/>
            </g>
        </g>
        <g transform="matrix(1,0,0,1,-2.08333,-2.23932)">
            <g transform="matrix(4.16667,0,0,4.16667,0.0833333,-2099.69)">
                <path d="M2,656.598L716.331,656.598" style="fill:none;fill-rule:nonzero;stroke:black;stroke-width:3px;"/>
            </g>
        </g>
    </g>
</svg>
