<?xml version="1.0" encoding="UTF-8" standalone="no"?>
<!DOCTYPE svg PUBLIC "-//W3C//DTD SVG 1.1//EN" "http://www.w3.org/Graphics/SVG/1.1/DTD/svg11.dtd">
<svg width="100%" height="100%" viewBox="0 0 2989 945" version="1.1" xmlns="http://www.w3.org/2000/svg" xmlns:xlink="http://www.w3.org/1999/xlink" xml:space="preserve" xmlns:serif="http://www.serif.com/" style="fill-rule:evenodd;clip-rule:evenodd;stroke-linecap:round;stroke-linejoin:round;stroke-miterlimit:10;">
    <g transform="matrix(1,0,0,1,-6.52429,-1304)">
        <g transform="matrix(1,0,0,1,-2.08333,-2.23932)">
            <g transform="matrix(1,0,0,1,941.603,1389.1)">
                <g transform="matrix(150,0,0,150,349.104,543.325)">
                </g>
                <text x="297.322px" y="543.325px" style="font-family:'Cambria-Italic', 'Cambria', serif;font-style:italic;font-size:150px;">t</text>
            </g>
        </g>
        <g transform="matrix(1,0,0,1,-2.08333,-2.23932)">
            <g transform="matrix(1,0,0,1,145.957,1103.61)">
                <text x="46.066px" y="453.243px" style="font-family:'Cambria-Italic', 'Cambria', serif;font-style:italic;font-size:150px;">τ</text>
                <text x="117.832px" y="453.243px" style="font-family:'Cambria', serif;font-size:150px;">₁</text>
                <text x="437.461px" y="453.243px" style="font-family:'Cambria-Italic', 'Cambria', serif;font-style:italic;font-size:150px;">τ</text>
                <g transform="matrix(150,0,0,150,570.312,453.243)">
                </g>
                <text x="509.228px" y="453.243px" style="font-family:'Cambria', serif;font-size:150px;">₁</text>
            </g>
        </g>
        <g transform="matrix(1,0,0,1,-2.08333,-2.23932)">
            <g transform="matrix(1,0,0,1,1061.55,1103.61)">
                <text x="335.199px" y="453.243px" style="font-family:'Cambria-Italic', 'Cambria', serif;font-style:italic;font-size:150px;">τ</text>
                <g transform="matrix(150,0,0,150,468.062,453.243)">
                </g>
                <text x="406.978px" y="453.243px" style="font-family:'Cambria', serif;font-size:150px;">₂</text>
            </g>
        </g>
        <g transform="matrix(1,0,0,1,-2.08333,-2.23932)">
            <g transform="matrix(1,0,0,1,1763.92,1103.61)">
                <text x="557px" y="453.243px" style="font-family:'Cambria-Italic', 'Cambria', serif;font-style:italic;font-size:150px;">τ</text>
                <g transform="matrix(150,0,0,150,689.863,453.243)">
                </g>
                <text x="628.779px" y="453.243px" style="font-family:'Cambria', serif;font-size:150px;">₂</text>
            </g>
        </g>
        <g transform="matrix(1,0,0,1,-2.08333,-2.23932)">
            <g transform="matrix(4.16667,0,0,4.16667,0.0833333,-98.0586)">
                <rect x="3.546" y="382.386" width="28.347" height="68.031" style="fill:rgb(219,124,23);"/>
            </g>
        </g>
        <g transform="matrix(1,0,0,1,-2.08333,-2.23932)">
            <g transform="matrix(4.16667,0,0,4.16667,0.0833333,-287.036)">
                <rect x="94.255" y="382.386" width="28.346" height="113.386" style="fill:rgb(219,124,23);"/>
            </g>
        </g>
        <g transform="matrix(1,0,0,1,-2.08333,-2.23932)">
            <g transform="matrix(4.16667,0,0,4.16667,0.0833333,657.848)">
                <rect x="167.955" y="269" width="28.346" height="113.386" style="fill:rgb(124,55,219);"/>
            </g>
        </g>
        <g transform="matrix(1,0,0,1,-2.08333,-2.23932)">
            <g transform="matrix(4.16667,0,0,4.16667,0.0833333,-287.036)">
                <rect x="429.916" y="382.386" width="28.346" height="113.386" style="fill:rgb(219,124,23);"/>
            </g>
        </g>
        <g transform="matrix(1,0,0,1,-2.08333,-2.23932)">
            <g transform="matrix(4.16667,0,0,4.16667,0.0833333,-193.327)">
                <path d="M27,423.334L18,427.834L27,432.334L27,423.334Z"/>
            </g>
        </g>
        <g transform="matrix(1,0,0,1,-2.08333,-2.23932)">
            <g transform="matrix(4.16667,0,0,4.16667,0.0833333,-193.327)">
                <path d="M101,423.334L110,427.834L101,432.334L101,423.334Z"/>
            </g>
        </g>
        <g transform="matrix(1,0,0,1,-2.08333,-2.23932)">
            <g transform="matrix(4.16667,0,0,4.16667,0.0833333,-193.327)">
                <path d="M25.2,427.834L102.8,427.834" style="fill:none;fill-rule:nonzero;stroke:black;stroke-width:3px;"/>
            </g>
        </g>
        <g transform="matrix(1,0,0,1,-2.08333,-2.23932)">
            <g transform="matrix(4.16667,0,0,4.16667,0.0833333,-193.327)">
                <path d="M119,423.334L110,427.834L119,432.334L119,423.334Z"/>
            </g>
        </g>
        <g transform="matrix(1,0,0,1,-2.08333,-2.23932)">
            <g transform="matrix(4.16667,0,0,4.16667,0.0833333,-193.327)">
                <path d="M193,423.334L202,427.834L193,432.334L193,423.334Z"/>
            </g>
        </g>
        <g transform="matrix(1,0,0,1,-2.08333,-2.23932)">
            <g transform="matrix(4.16667,0,0,4.16667,0.0833333,-193.327)">
                <path d="M117.2,427.834L194.8,427.834" style="fill:none;fill-rule:nonzero;stroke:black;stroke-width:3px;"/>
            </g>
        </g>
        <g transform="matrix(1,0,0,1,-2.08333,-2.23932)">
            <g transform="matrix(4.16667,0,0,4.16667,0.0833333,-193.327)">
                <path d="M211,423.334L202,427.834L211,432.334L211,423.334Z"/>
            </g>
        </g>
        <g transform="matrix(1,0,0,1,-2.08333,-2.23932)">
            <g transform="matrix(4.16667,0,0,4.16667,0.0833333,-193.327)">
                <path d="M434,423.334L443,427.834L434,432.334L434,423.334Z"/>
            </g>
        </g>
        <g transform="matrix(1,0,0,1,-2.08333,-2.23932)">
            <g transform="matrix(4.16667,0,0,4.16667,0.0833333,-193.327)">
                <path d="M209.2,427.834L435.8,427.834" style="fill:none;fill-rule:nonzero;stroke:black;stroke-width:3px;"/>
            </g>
        </g>
        <g transform="matrix(1,0,0,1,-2.08333,-2.23932)">
            <g transform="matrix(4.16667,0,0,4.16667,0.0833333,-193.327)">
                <path d="M452,423.334L443,427.834L452,432.334L452,423.334Z"/>
            </g>
        </g>
        <g transform="matrix(1,0,0,1,-2.08333,-2.23932)">
            <g transform="matrix(4.16667,0,0,4.16667,0.0833333,-193.327)">
                <path d="M675,423.334L684,427.834L675,432.334L675,423.334Z"/>
            </g>
        </g>
        <g transform="matrix(1,0,0,1,-2.08333,-2.23932)">
            <g transform="matrix(4.16667,0,0,4.16667,0.0833333,-193.327)">
                <path d="M450.2,427.834L676.8,427.834" style="fill:none;fill-rule:nonzero;stroke:black;stroke-width:3px;"/>
            </g>
        </g>
        <g transform="matrix(1,0,0,1,-2.08333,-2.23932)">
            <g transform="matrix(4.16667,0,0,4.16667,0.0833333,561.756)">
                <path d="M423.609,332.724L432.609,337.224L423.609,341.724L423.609,332.724Z" style="fill-rule:nonzero;"/>
            </g>
        </g>
        <g transform="matrix(1,0,0,1,-2.08333,-2.23932)">
            <g transform="matrix(4.16667,0,0,4.16667,0.0833333,561.756)">
                <path d="M184.963,337.224L425.409,337.224" style="fill:none;fill-rule:nonzero;stroke:black;stroke-width:3px;"/>
            </g>
        </g>
        <g transform="matrix(1,0,0,1,-2.08333,-2.23932)">
            <g transform="matrix(4.16667,0,0,4.16667,0.0833333,185.406)">
                <path d="M3.546,382.386L717.877,382.386" style="fill:none;fill-rule:nonzero;stroke:black;stroke-width:3px;"/>
            </g>
        </g>
    </g>
</svg>
