<?xml version="1.0" encoding="UTF-8" standalone="no"?>
<!DOCTYPE svg PUBLIC "-//W3C//DTD SVG 1.1//EN" "http://www.w3.org/Graphics/SVG/1.1/DTD/svg11.dtd">
<svg width="100%" height="100%" viewBox="0 0 3026 945" version="1.1" xmlns="http://www.w3.org/2000/svg" xmlns:xlink="http://www.w3.org/1999/xlink" xml:space="preserve" xmlns:serif="http://www.serif.com/" style="fill-rule:evenodd;clip-rule:evenodd;stroke-linecap:round;stroke-linejoin:round;stroke-miterlimit:10;">
    <g transform="matrix(1,0,0,1,-6.52429,-2427.08)">
        <g transform="matrix(1,0,0,1,-2.08333,-2.23932)">
            <g transform="matrix(1,0,0,1,462.531,2270.74)">
                <g transform="matrix(150,0,0,150,276.991,821.736)">
                </g>
                <text x="146.036px" y="821.736px" style="font-family:'Cambria-Italic', 'Cambria', serif;font-style:italic;font-size:150px;">τ₃</text>
            </g>
        </g>
        <g transform="matrix(1,0,0,1,-2.08333,-2.23932)">
            <g transform="matrix(1,0,0,1,1173.32,2272.11)">
                <g transform="matrix(150,0,0,150,422.277,822.169)">
                </g>
                <text x="370.495px" y="822.169px" style="font-family:'Cambria-Italic', 'Cambria', serif;font-style:italic;font-size:150px;">t</text>
            </g>
        </g>
        <g transform="matrix(1,0,0,1,-2.08333,-2.23932)">
            <g transform="matrix(1,0,0,1,262.65,1968.81)">
                <g transform="matrix(150,0,0,150,154.693,726.392)">
                </g>
                <text x="82.916px" y="726.392px" style="font-family:'Cambria-Italic', 'Cambria', serif;font-style:italic;font-size:150px;">τ</text>
            </g>
        </g>
        <g transform="matrix(1,0,0,1,-2.08333,-2.23932)">
            <g transform="matrix(1,0,0,1,1061.55,1968.81)">
                <g transform="matrix(150,0,0,150,486.221,726.392)">
                </g>
                <text x="335.199px" y="726.392px" style="font-family:'Cambria-Italic', 'Cambria', serif;font-style:italic;font-size:150px;">2τ</text>
            </g>
        </g>
        <g transform="matrix(1,0,0,1,-2.08333,-2.23932)">
            <g transform="matrix(1,0,0,1,1932.26,1968.81)">
                <g transform="matrix(150,0,0,150,681.937,726.392)">
                </g>
                <text x="610.16px" y="726.392px" style="font-family:'Cambria-Italic', 'Cambria', serif;font-style:italic;font-size:150px;">τ</text>
            </g>
        </g>
        <g transform="matrix(1,0,0,1,-2.08333,-2.23932)">
            <g transform="matrix(4.16667,0,0,4.16667,0.0833333,2148.09)">
                <rect x="3.827" y="112.848" width="28.346" height="68.031" style="fill:rgb(219,124,23);"/>
            </g>
        </g>
        <g transform="matrix(1,0,0,1,-2.08333,-2.23932)">
            <g transform="matrix(4.16667,0,0,4.16667,0.0833333,1959.11)">
                <rect x="170.327" y="112.848" width="28.346" height="113.386" style="fill:rgb(219,124,23);"/>
            </g>
        </g>
        <g transform="matrix(1,0,0,1,-2.08333,-2.23932)">
            <g transform="matrix(4.16667,0,0,4.16667,0.0833333,2903.99)">
                <rect x="249.744" y="-0.537" width="28.346" height="113.386" style="fill:rgb(124,55,219);"/>
            </g>
        </g>
        <g transform="matrix(1,0,0,1,-2.08333,-2.23932)">
            <g transform="matrix(4.16667,0,0,4.16667,0.0833333,2903.99)">
                <rect x="116.932" y="-0.537" width="28.347" height="113.386" style="fill:rgb(124,55,219);"/>
            </g>
        </g>
        <g transform="matrix(1,0,0,1,-2.08333,-2.23932)">
            <g transform="matrix(4.16667,0,0,4.16667,0.0833333,1959.11)">
                <rect x="503.827" y="112.848" width="28.346" height="113.386" style="fill:rgb(219,124,23);"/>
            </g>
        </g>
        <g transform="matrix(1,0,0,1,-2.08333,-2.23932)">
            <g transform="matrix(4.16667,0,0,4.16667,0.0833333,2172.09)">
                <path d="M639.65,175.148L639.888,175.145L640.046,175.142L640.284,175.138L640.483,175.135L640.602,175.132L640.721,175.13L640.88,175.127L640.999,175.124L641.197,175.12L641.356,175.116L641.514,175.113L641.713,175.107L642.03,175.099L642.149,175.095L642.229,175.093L642.308,175.09L642.467,175.085L642.546,175.083L642.626,175.08L642.784,175.074L642.864,175.072L643.022,175.066L643.26,175.056L643.34,175.053L643.498,175.046L643.618,175.041L643.697,175.037L643.816,175.032L643.935,175.026L644.014,175.022L644.133,175.016L644.213,175.012L644.292,175.007L644.411,175.001L644.49,174.996L644.57,174.992L644.649,174.987L644.729,174.982L644.887,174.972L645.006,174.964L645.086,174.959L645.165,174.954L645.244,174.948L645.324,174.943L645.443,174.934L645.522,174.928L645.602,174.922L645.681,174.916L645.76,174.909L645.84,174.903L645.919,174.896L645.998,174.89L646.078,174.883L646.236,174.869L646.316,174.861L646.355,174.858L646.435,174.85L646.514,174.842L646.594,174.835L646.673,174.827L646.752,174.818L646.832,174.81L646.911,174.802L646.99,174.793L647.07,174.784L647.228,174.766L647.308,174.757L647.387,174.747L647.466,174.738L647.546,174.728L647.625,174.717L647.665,174.712L647.744,174.702L647.824,174.691L647.903,174.681L647.982,174.669L648.022,174.664L648.101,174.653L648.181,174.641L648.22,174.635L648.3,174.623L648.379,174.611L648.419,174.605L648.458,174.599L648.498,174.592L648.578,174.58L648.617,174.573L648.697,174.56L648.736,174.554L648.816,174.54L648.855,174.533L648.895,174.526L648.974,174.513L649.014,174.505L649.054,174.498L649.093,174.491L649.133,174.484L649.212,174.469L649.292,174.454L649.331,174.446L649.371,174.439L649.411,174.431L649.45,174.423L649.57,174.399L649.609,174.391L649.689,174.375L649.768,174.358L649.808,174.35L649.847,174.341L649.887,174.332L649.927,174.324L649.966,174.315L650.006,174.306L650.085,174.288L650.165,174.27L650.204,174.26L650.284,174.242L650.323,174.232L650.363,174.223L650.403,174.213L650.442,174.203L650.522,174.183L650.601,174.163L650.681,174.143L650.72,174.132L650.76,174.122L650.8,174.111L650.839,174.1L650.879,174.09L650.919,174.079L650.958,174.068L651.038,174.046L651.077,174.035L651.117,174.023L651.157,174.012L651.196,174L651.236,173.989L651.276,173.977L651.315,173.965L651.395,173.941L651.434,173.929L651.514,173.905L651.554,173.892L651.593,173.88L651.673,173.854L651.712,173.841L651.792,173.815L651.831,173.802L651.911,173.776L651.95,173.762L651.99,173.748L652.03,173.735L652.069,173.721L652.149,173.693L652.188,173.679L652.228,173.664L652.268,173.65L652.307,173.635L652.347,173.621L652.387,173.606L652.426,173.591L652.546,173.546L652.585,173.53L652.625,173.515L652.665,173.499L652.704,173.484L652.784,173.452L652.823,173.436L652.863,173.419L652.903,173.403L652.942,173.386L652.982,173.37L653.022,173.353L653.061,173.336L653.141,173.302L653.18,173.285L653.26,173.249L653.299,173.232L653.379,173.196L653.418,173.178L653.458,173.159L653.498,173.141L653.538,173.122L653.577,173.104L653.657,173.066L653.696,173.047L653.736,173.027L653.776,173.008L653.815,172.988L653.855,172.969L653.895,172.949L653.934,172.929L653.974,172.909L654.014,172.888L654.053,172.868L654.133,172.826L654.172,172.805L654.252,172.763L654.291,172.742L654.371,172.698L654.41,172.676L654.53,172.61L654.569,172.587L654.649,172.541L654.688,172.518L654.768,172.472L654.807,172.448L654.887,172.4L654.926,172.376L654.966,172.352L655.006,172.327L655.045,172.303L655.125,172.253L655.164,172.228L655.204,172.203L655.244,172.177L655.283,172.151L655.363,172.099L655.402,172.073L655.442,172.047L655.522,171.993L655.561,171.966L655.641,171.912L655.68,171.884L655.76,171.828L655.799,171.8L655.839,171.772L655.879,171.743L655.918,171.715L655.958,171.686L655.998,171.656L656.037,171.627L656.077,171.598L656.117,171.568L656.156,171.538L656.196,171.508L656.236,171.477L656.275,171.447L656.395,171.354L656.434,171.323L656.514,171.259L656.553,171.227L656.593,171.195L656.633,171.162L656.672,171.13L656.752,171.064L656.791,171.03L656.831,170.997L656.871,170.963L656.91,170.929L656.99,170.861L657.029,170.826L657.109,170.756L657.148,170.721L657.228,170.649L657.267,170.613L657.347,170.541L657.387,170.504L657.426,170.467L657.466,170.43L657.545,170.355L657.625,170.279L657.664,170.24L657.704,170.202L657.744,170.163L657.783,170.124L657.823,170.085L657.863,170.045L657.902,170.005L657.982,169.925L658.021,169.884L658.061,169.844L658.101,169.802L658.14,169.761L658.18,169.72L658.22,169.678L658.259,169.636L658.299,169.593L658.339,169.551L658.379,169.508L658.418,169.465L658.458,169.422L658.498,169.378L658.537,169.334L658.617,169.246L658.656,169.201L658.736,169.111L658.775,169.066L658.855,168.974L658.894,168.928L658.974,168.834L659.013,168.787L659.093,168.693L659.132,168.645L659.172,168.597L659.212,168.548L659.251,168.499L659.291,168.451L659.331,168.401L659.371,168.352L659.41,168.302L659.49,168.202L659.529,168.151L659.609,168.049L659.648,167.997L659.688,167.946L659.728,167.894L659.767,167.841L659.807,167.789L659.847,167.736L659.886,167.682L659.926,167.629L659.966,167.575L660.005,167.521L660.045,167.467L660.085,167.412L660.124,167.357L660.164,167.302L660.204,167.246L660.243,167.191L660.283,167.134L660.323,167.078L660.363,167.021L660.402,166.964L660.442,166.907L660.482,166.849L660.521,166.791L660.601,166.675L660.64,166.616L660.68,166.557L660.72,166.497L660.759,166.437L660.839,166.317L660.878,166.256L660.958,166.134L660.997,166.073L661.077,165.949L661.116,165.886L661.196,165.76L661.235,165.697L661.315,165.569L661.355,165.504L661.394,165.44L661.434,165.375L661.474,165.309L661.513,165.244L661.553,165.178L661.593,165.111L661.632,165.045L661.712,164.911L661.751,164.843L661.831,164.707L661.87,164.638L661.91,164.57L661.95,164.5L661.989,164.431L662.069,164.291L662.108,164.221L662.188,164.079L662.227,164.007L662.267,163.936L662.307,163.863L662.347,163.791L662.386,163.718L662.466,163.572L662.505,163.498L662.585,163.35L662.624,163.275L662.704,163.125L662.743,163.049L662.823,162.897L662.862,162.82L662.942,162.666L662.981,162.588L663.061,162.432L663.1,162.353L663.18,162.195L663.219,162.115L663.299,161.955L663.339,161.874L663.378,161.793L663.418,161.712L663.458,161.63L663.497,161.548L663.537,161.466L663.577,161.383L663.616,161.301L663.656,161.217L663.696,161.134L663.735,161.05L663.775,160.965L663.815,160.881L663.854,160.796L663.894,160.711L663.934,160.625L663.973,160.539L664.013,160.453L664.053,160.366L664.092,160.279L664.132,160.192L664.172,160.104L664.211,160.016L664.291,159.84L664.331,159.751L664.37,159.661L664.41,159.572L664.45,159.482L664.489,159.392L664.569,159.21L664.608,159.119L664.648,159.027L664.688,158.936L664.727,158.843L664.767,158.751L664.807,158.658L664.846,158.565L664.926,158.377L664.965,158.283L665.005,158.189L665.045,158.094L665.084,157.999L665.124,157.903L665.164,157.808L665.203,157.711L665.243,157.615L665.323,157.421L665.362,157.324L665.442,157.128L665.481,157.03L665.561,156.832L665.6,156.733L665.68,156.533L665.719,156.433L665.759,156.332L665.799,156.232L665.838,156.13L665.878,156.029L665.918,155.927L665.957,155.825L665.997,155.723L666.037,155.62L666.076,155.517L666.116,155.413L666.156,155.31L666.195,155.206L666.235,155.102L666.315,154.892L666.354,154.787L666.394,154.682L666.434,154.576L666.473,154.47L666.513,154.363L666.553,154.257L666.592,154.15L666.632,154.042L666.672,153.935L666.711,153.827L666.791,153.611L666.83,153.502L666.91,153.284L666.949,153.174L667.029,152.954L667.068,152.844L667.148,152.622L667.187,152.511L667.307,152.175L667.346,152.063L667.426,151.837L667.465,151.724L667.505,151.611L667.545,151.497L667.584,151.383L667.624,151.269L667.664,151.154L667.703,151.04L667.743,150.925L667.783,150.809L667.822,150.694L667.902,150.462L667.941,150.346L667.981,150.229L668.021,150.113L668.06,149.996L668.1,149.878L668.14,149.761L668.179,149.643L668.259,149.407L668.299,149.288L668.338,149.17L668.418,148.932L668.457,148.812L668.497,148.693L668.537,148.573L668.576,148.453L668.616,148.333L668.656,148.212L668.695,148.091L668.775,147.849L668.814,147.728L668.854,147.606L668.894,147.485L668.933,147.363L668.973,147.24L669.013,147.118L669.052,146.995L669.092,146.873L669.132,146.75L669.171,146.627L669.211,146.503L669.251,146.38L669.291,146.256L669.33,146.132L669.41,145.884L669.449,145.759L669.489,145.634L669.529,145.51L669.568,145.385L669.608,145.26L669.648,145.134L669.687,145.009L669.767,144.757L669.806,144.631L669.886,144.379L669.925,144.252L669.965,144.126L670.005,143.999L670.044,143.872L670.124,143.618L670.163,143.491L670.203,143.363L670.283,143.108L670.322,142.98L670.362,142.853L670.402,142.724L670.481,142.468L670.521,142.34L670.6,142.083L670.64,141.954L670.679,141.825L670.719,141.696L670.798,141.438L670.838,141.309L670.917,141.05L670.997,140.791L671.036,140.661L671.116,140.402L671.195,140.142L671.235,140.012L671.314,139.752L671.394,139.492L671.433,139.362L671.513,139.101L671.592,138.84L671.632,138.71L671.711,138.449L671.83,138.057L671.87,137.926L671.909,137.796L672.028,137.404L672.068,137.273L672.187,136.881L672.267,136.62L672.425,136.098L672.465,135.968L672.544,135.707L672.624,135.446L672.663,135.316L672.743,135.055L672.782,134.925L672.862,134.665L672.941,134.406L672.981,134.276L673.06,134.016L673.139,133.757L673.259,133.37L673.338,133.112L673.378,132.983L673.457,132.725L673.497,132.597L673.536,132.468L673.616,132.212L673.655,132.084L673.735,131.828L673.774,131.701L673.814,131.573L673.854,131.446L673.893,131.319L673.973,131.065L674.012,130.938L674.052,130.812L674.092,130.685L674.131,130.559L674.211,130.307L674.251,130.182L674.29,130.056L674.37,129.806L674.409,129.681L674.449,129.556L674.489,129.432L674.528,129.308L674.608,129.06L674.647,128.936L674.727,128.69L674.766,128.567L674.846,128.321L674.885,128.199L674.965,127.955L675.004,127.834L675.084,127.592L675.123,127.471L675.163,127.35L675.243,127.11L675.282,126.991L675.322,126.871L675.362,126.752L675.401,126.633L675.481,126.397L675.52,126.279L675.56,126.161L675.6,126.044L675.639,125.927L675.679,125.81L675.719,125.694L675.758,125.578L675.838,125.346L675.877,125.231L675.917,125.116L675.957,125.002L675.996,124.888L676.036,124.774L676.116,124.548L676.155,124.435L676.235,124.211L676.274,124.099L676.354,123.877L676.393,123.766L676.473,123.546L676.512,123.437L676.592,123.219L676.631,123.111L676.671,123.003L676.711,122.896L676.75,122.789L676.79,122.682L676.83,122.576L676.869,122.47L676.949,122.26L676.988,122.155L677.028,122.051L677.068,121.948L677.108,121.844L677.147,121.742L677.187,121.639L677.227,121.537L677.266,121.436L677.346,121.234L677.385,121.134L677.425,121.034L677.465,120.935L677.504,120.836L677.584,120.64L677.623,120.543L677.663,120.446L677.703,120.35L677.742,120.254L677.822,120.064L677.861,119.969L677.901,119.876L677.941,119.782L677.98,119.689L678.06,119.505L678.1,119.414L678.139,119.323L678.219,119.143L678.258,119.054L678.298,118.965L678.338,118.877L678.377,118.789L678.457,118.615L678.496,118.529L678.576,118.359L678.615,118.274L678.655,118.19L678.695,118.107L678.734,118.024L678.774,117.942L678.814,117.861L678.853,117.78L678.893,117.699L678.933,117.619L678.972,117.54L679.012,117.461L679.092,117.305L679.131,117.228L679.211,117.076L679.25,117.001L679.29,116.926L679.33,116.852L679.369,116.779L679.409,116.706L679.449,116.634L679.488,116.562L679.528,116.491L679.568,116.421L679.607,116.351L679.647,116.282L679.687,116.214L679.726,116.146L679.766,116.078L679.806,116.012L679.845,115.946L679.885,115.88L679.925,115.816L679.964,115.752L680.004,115.688L680.044,115.625L680.084,115.563L680.123,115.502L680.163,115.441L680.203,115.381L680.242,115.321L680.282,115.262L680.322,115.204L680.361,115.146L680.401,115.089L680.441,115.033L680.48,114.977L680.52,114.922L680.56,114.868L680.599,114.815L680.679,114.709L680.718,114.658L680.758,114.607L680.798,114.557L680.837,114.507L680.877,114.458L680.917,114.41L680.956,114.363L680.996,114.316L681.076,114.224L681.115,114.18L681.195,114.092L681.234,114.05L681.274,114.008L681.314,113.967L681.353,113.926L681.393,113.886L681.472,113.809L681.512,113.771L681.552,113.734L681.591,113.698L681.631,113.662L681.671,113.627L681.71,113.593L681.79,113.527L681.829,113.495L681.909,113.433L681.948,113.404L681.988,113.374L682.068,113.318L682.107,113.291L682.147,113.265L682.187,113.24L682.226,113.215L682.266,113.191L682.306,113.168L682.345,113.145L682.385,113.123L682.425,113.102L682.464,113.082L682.504,113.062L682.544,113.043L682.583,113.025L682.663,112.991L682.702,112.975L682.742,112.96L682.782,112.946L682.821,112.932L682.861,112.919L682.901,112.907L682.94,112.895L682.98,112.884L683.02,112.874L683.06,112.865L683.099,112.856L683.179,112.842L683.218,112.835L683.298,112.825L683.337,112.821L683.377,112.817L683.456,112.813L683.536,112.811L683.615,112.813L683.655,112.815L683.694,112.817L683.774,112.825L683.813,112.83L683.853,112.835L683.893,112.842L683.932,112.849L683.972,112.856L684.052,112.874L684.091,112.884L684.131,112.895L684.171,112.907L684.21,112.919L684.25,112.932L684.29,112.946L684.329,112.96L684.369,112.975L684.409,112.991L684.448,113.008L684.488,113.025L684.528,113.043L684.567,113.062L684.647,113.102L684.686,113.123L684.726,113.145L684.766,113.168L684.805,113.191L684.845,113.215L684.885,113.24L684.924,113.265L684.964,113.291L685.004,113.318L685.044,113.346L685.083,113.374L685.123,113.404L685.163,113.433L685.202,113.464L685.242,113.495L685.282,113.527L685.321,113.56L685.361,113.593L685.401,113.627L685.44,113.662L685.52,113.734L685.599,113.809L685.639,113.847L685.718,113.926L685.758,113.967L685.837,114.05L685.877,114.092L685.916,114.136L685.996,114.224L686.036,114.27L686.075,114.316L686.155,114.41L686.194,114.458L686.234,114.507L686.274,114.557L686.313,114.607L686.393,114.709L686.432,114.762L686.512,114.868L686.551,114.922L686.591,114.977L686.631,115.033L686.67,115.089L686.71,115.146L686.75,115.204L686.789,115.262L686.829,115.321L686.869,115.381L686.908,115.441L686.988,115.563L687.028,115.625L687.067,115.688L687.147,115.816L687.186,115.88L687.266,116.012L687.305,116.078L687.385,116.214L687.424,116.282L687.464,116.351L687.504,116.421L687.543,116.491L687.583,116.562L687.623,116.634L687.662,116.706L687.742,116.852L687.781,116.926L687.861,117.076L687.9,117.152L687.94,117.228L687.98,117.305L688.02,117.383L688.059,117.461L688.139,117.619L688.178,117.699L688.258,117.861L688.297,117.942L688.337,118.024L688.377,118.107L688.416,118.19L688.456,118.274L688.496,118.359L688.535,118.444L688.575,118.529L688.615,118.615L688.654,118.702L688.694,118.789L688.734,118.877L688.773,118.965L688.853,119.143L688.892,119.233L688.932,119.323L689.012,119.505L689.051,119.597L689.091,119.689L689.131,119.782L689.17,119.876L689.21,119.969L689.25,120.064L689.289,120.159L689.329,120.254L689.369,120.35L689.408,120.446L689.488,120.64L689.527,120.738L689.567,120.836L689.607,120.935L689.646,121.034L689.726,121.234L689.765,121.335L689.845,121.537L689.884,121.639L689.924,121.742L689.964,121.844L690.004,121.948L690.043,122.051L690.083,122.155L690.123,122.26L690.162,122.365L690.202,122.47L690.242,122.576L690.281,122.682L690.361,122.896L690.4,123.003L690.48,123.219L690.519,123.328L690.599,123.546L690.638,123.656L690.678,123.766L690.718,123.877L690.757,123.988L690.797,124.099L690.837,124.211L690.876,124.323L690.916,124.435L690.996,124.661L691.035,124.774L691.115,125.002L691.154,125.116L691.234,125.346L691.273,125.462L691.353,125.694L691.392,125.81L691.472,126.044L691.511,126.161L691.591,126.397L691.63,126.515L691.67,126.633L691.71,126.752L691.749,126.871L691.789,126.991L691.829,127.11L691.868,127.23L691.908,127.35L691.988,127.592L692.027,127.713L692.107,127.955L692.146,128.077L692.226,128.321L692.265,128.444L692.345,128.69L692.384,128.813L692.424,128.936L692.464,129.06L692.503,129.184L692.583,129.432L692.622,129.556L692.702,129.806L692.741,129.931L692.781,130.056L692.821,130.182L692.86,130.307L692.98,130.685L693.019,130.812L693.059,130.938L693.099,131.065L693.138,131.192L693.218,131.446L693.257,131.573L693.297,131.701L693.337,131.828L693.376,131.956L693.456,132.212L693.495,132.34L693.535,132.468L693.575,132.597L693.614,132.725L693.694,132.983L693.733,133.112L693.813,133.37L693.892,133.628L693.932,133.757L694.011,134.016L694.091,134.276L694.13,134.406L694.21,134.665L694.289,134.925L694.329,135.055L694.408,135.316L694.487,135.576L694.527,135.707L694.606,135.968L694.646,136.098L694.725,136.359L694.805,136.62L694.924,137.012L695.003,137.273L695.043,137.404L695.122,137.665L695.162,137.796L695.202,137.926L695.241,138.057L695.321,138.318L695.36,138.449L695.44,138.71L695.559,139.101L695.638,139.362L695.717,139.622L695.757,139.752L695.836,140.012L695.956,140.402L696.035,140.661L696.075,140.791L696.233,141.309L696.273,141.438L696.352,141.696L696.432,141.954L696.471,142.083L696.551,142.34L696.59,142.468L696.67,142.724L696.709,142.853L696.749,142.98L696.789,143.108L696.868,143.363L696.908,143.491L696.948,143.618L696.987,143.745L697.067,143.999L697.106,144.126L697.146,144.252L697.186,144.379L697.225,144.505L697.305,144.757L697.344,144.883L697.384,145.009L697.424,145.134L697.463,145.26L697.543,145.51L697.582,145.634L697.662,145.884L697.701,146.008L697.821,146.38L697.86,146.503L697.9,146.627L697.94,146.75L697.979,146.873L698.019,146.995L698.059,147.118L698.098,147.24L698.138,147.363L698.178,147.485L698.217,147.606L698.257,147.728L698.297,147.849L698.336,147.97L698.416,148.212L698.455,148.333L698.535,148.573L698.574,148.693L698.614,148.812L698.654,148.932L698.693,149.051L698.733,149.17L698.773,149.288L698.813,149.407L698.852,149.525L698.932,149.761L698.971,149.878L699.011,149.996L699.051,150.113L699.09,150.229L699.13,150.346L699.17,150.462L699.209,150.578L699.249,150.694L699.289,150.809L699.328,150.925L699.368,151.04L699.408,151.154L699.447,151.269L699.527,151.497L699.566,151.611L699.646,151.837L699.685,151.95L699.725,152.063L699.805,152.287L699.844,152.399L699.884,152.511L699.924,152.622L699.963,152.733L700.003,152.844L700.043,152.954L700.082,153.064L700.162,153.284L700.201,153.393L700.281,153.611L700.32,153.719L700.4,153.935L700.439,154.042L700.479,154.15L700.519,154.257L700.558,154.363L700.598,154.47L700.638,154.576L700.677,154.682L700.797,154.997L700.836,155.102L700.916,155.31L700.955,155.413L700.995,155.517L701.035,155.62L701.074,155.723L701.154,155.927L701.193,156.029L701.233,156.13L701.273,156.232L701.312,156.332L701.352,156.433L701.392,156.533L701.431,156.633L701.471,156.733L701.511,156.832L701.55,156.931L701.59,157.03L701.63,157.128L701.669,157.226L701.709,157.324L701.789,157.518L701.828,157.615L701.868,157.711L701.908,157.808L701.947,157.903L701.987,157.999L702.027,158.094L702.066,158.189L702.146,158.377L702.185,158.471L702.225,158.565L702.265,158.658L702.304,158.751L702.344,158.843L702.384,158.936L702.423,159.027L702.463,159.119L702.503,159.21L702.542,159.301L702.582,159.392L702.622,159.482L702.661,159.572L702.701,159.661L702.741,159.751L702.781,159.84L702.82,159.928L702.9,160.104L702.939,160.192L703.019,160.366L703.058,160.453L703.138,160.625L703.177,160.711L703.257,160.881L703.296,160.965L703.336,161.05L703.376,161.134L703.415,161.217L703.455,161.301L703.495,161.383L703.534,161.466L703.614,161.63L703.653,161.712L703.773,161.955L703.812,162.035L703.892,162.195L703.931,162.274L704.011,162.432L704.05,162.51L704.13,162.666L704.169,162.743L704.249,162.897L704.288,162.973L704.368,163.125L704.407,163.2L704.487,163.35L704.526,163.424L704.606,163.572L704.645,163.645L704.725,163.791L704.765,163.863L704.804,163.936L704.844,164.007L704.884,164.079L704.923,164.15L704.963,164.221L705.003,164.291L705.042,164.361L705.082,164.431L705.122,164.5L705.161,164.57L705.201,164.638L705.241,164.707L705.28,164.775L705.36,164.911L705.399,164.978L705.439,165.045L705.479,165.111L705.518,165.178L705.558,165.244L705.598,165.309L705.637,165.375L705.677,165.44L705.717,165.504L705.757,165.569L705.796,165.633L705.836,165.697L705.876,165.76L705.915,165.823L705.995,165.949L706.034,166.011L706.074,166.073L706.114,166.134L706.153,166.195L706.233,166.317L706.272,166.377L706.352,166.497L706.391,166.557L706.471,166.675L706.51,166.733L706.59,166.849L706.629,166.907L706.749,167.078L706.788,167.134L706.828,167.191L706.868,167.246L706.907,167.302L706.987,167.412L707.026,167.467L707.106,167.575L707.145,167.629L707.185,167.682L707.225,167.736L707.264,167.789L707.304,167.841L707.344,167.894L707.383,167.946L707.423,167.997L707.463,168.049L707.502,168.1L707.582,168.202L707.621,168.252L707.701,168.352L707.741,168.401L707.78,168.451L707.82,168.499L707.86,168.548L707.899,168.597L707.979,168.693L708.018,168.74L708.098,168.834L708.137,168.881L708.177,168.928L708.217,168.974L708.256,169.02L708.296,169.066L708.336,169.111L708.375,169.156L708.455,169.246L708.494,169.29L708.574,169.378L708.613,169.422L708.733,169.551L708.772,169.593L708.812,169.636L708.852,169.678L708.891,169.72L708.971,169.802L709.01,169.844L709.05,169.884L709.129,169.965L709.209,170.045L709.248,170.085L709.328,170.163L709.367,170.202L709.407,170.24L709.486,170.317L709.526,170.355L709.566,170.392L709.605,170.43L709.725,170.541L709.764,170.577L709.844,170.649L709.883,170.685L709.923,170.721L709.963,170.756L710.002,170.791L710.082,170.861L710.121,170.895L710.201,170.963L710.24,170.997L710.28,171.03L710.32,171.064L710.359,171.097L710.399,171.13L710.439,171.162L710.478,171.195L710.558,171.259L710.597,171.291L710.637,171.323L710.717,171.385L710.756,171.416L710.796,171.447L710.836,171.477L710.875,171.508L710.955,171.568L710.994,171.598L711.074,171.656L711.113,171.686L711.153,171.715L711.193,171.743L711.232,171.772L711.312,171.828L711.351,171.856L711.431,171.912L711.47,171.939L711.55,171.993L711.589,172.02L711.629,172.047L711.709,172.099L711.748,172.125L711.828,172.177L711.867,172.203L711.947,172.253L711.986,172.278L712.026,172.303L712.066,172.327L712.105,172.352L712.185,172.4L712.224,172.424L712.304,172.472L712.343,172.495L712.423,172.541L712.462,172.564L712.542,172.61L712.581,172.632L712.701,172.698L712.74,172.72L712.78,172.742L712.82,172.763L712.859,172.784L712.939,172.826L712.978,172.847L713.018,172.868L713.058,172.888L713.097,172.909L713.177,172.949L713.216,172.969L713.256,172.988L713.296,173.008L713.335,173.027L713.375,173.047L713.415,173.066L713.454,173.085L713.494,173.104L713.534,173.122L713.573,173.141L713.613,173.159L713.653,173.178L713.693,173.196L713.732,173.214L713.772,173.232L713.812,173.249L713.851,173.267L713.891,173.285L713.931,173.302L713.97,173.319L714.05,173.353L714.089,173.37L714.129,173.386L714.169,173.403L714.208,173.419L714.248,173.436L714.288,173.452L714.327,173.468L714.367,173.484L714.407,173.499L714.446,173.515L714.486,173.53L714.526,173.546L714.565,173.561L714.685,173.606L714.724,173.621L714.764,173.635L714.804,173.65L714.843,173.664L714.883,173.679L714.923,173.693L714.962,173.707L715.042,173.735L715.081,173.748L715.161,173.776L715.2,173.789L715.28,173.815L715.319,173.828L715.399,173.854L715.438,173.867L715.478,173.88L715.518,173.892L715.557,173.905L715.677,173.941L715.716,173.953L715.796,173.977L715.835,173.989L715.875,174L715.915,174.012L715.954,174.023L715.994,174.035L716.034,174.046L716.073,174.057L716.153,174.079L716.192,174.09L716.232,174.1L716.272,174.111L716.311,174.122L716.351,174.132L716.391,174.143L716.43,174.153L716.47,174.163L716.549,174.183L716.669,174.213L716.708,174.223L716.748,174.232L716.788,174.242L716.827,174.251L716.867,174.26L716.907,174.27L717.065,174.306L717.145,174.324L717.184,174.332L717.264,174.35L717.303,174.358L717.383,174.375L717.422,174.383L717.542,174.407L717.581,174.415L717.661,174.431L717.7,174.439L717.74,174.446L717.78,174.454L717.938,174.484L718.018,174.498L718.057,174.505L718.097,174.513L718.176,174.526L718.256,174.54L718.335,174.554L718.375,174.56L718.454,174.573L718.494,174.58L718.573,174.592L718.613,174.599L718.653,174.605L718.692,174.611L718.772,174.623L718.851,174.635L718.891,174.641L718.97,174.653L719.049,174.664L719.129,174.675L719.168,174.681L719.248,174.691L719.327,174.702L719.406,174.712L719.486,174.723L719.526,174.728L719.605,174.738L719.684,174.747L719.764,174.757L719.922,174.775L720.002,174.784L720.16,174.802L720.24,174.81L720.319,174.818L720.398,174.827L720.478,174.835L720.557,174.842L720.637,174.85L720.716,174.858L720.795,174.865L720.875,174.872L721.033,174.886L721.113,174.893L721.192,174.9L721.271,174.906L721.39,174.916L721.47,174.922L721.549,174.928L721.629,174.934L721.748,174.943L721.827,174.948L721.906,174.954L721.986,174.959L722.065,174.964L722.144,174.97L722.224,174.975L722.303,174.98L722.422,174.987L722.502,174.992L722.581,174.996L722.66,175.001L722.779,175.007L722.859,175.012L722.938,175.016L723.176,175.028L723.255,175.032L723.374,175.037L723.454,175.041L723.573,175.046L723.732,175.053L723.851,175.058L723.93,175.061L724.049,175.066L724.208,175.072L724.287,175.074L724.446,175.08L724.525,175.083L724.684,175.088L724.763,175.09L724.843,175.093L724.922,175.095L725.041,175.099L725.279,175.105L725.358,175.107L725.478,175.111L725.636,175.115L725.795,175.118L725.993,175.123L726.192,175.127L726.35,175.13L726.47,175.132L726.589,175.135L727.184,175.145L727.342,175.147L727.541,175.15L727.858,175.154L727.977,175.155L728.176,175.158L728.255,175.158" style="fill:rgb(191,191,191);"/>
            </g>
        </g>
        <g transform="matrix(1,0,0,1,-2.08333,-2.23932)">
            <g transform="matrix(4.16667,0,0,4.16667,0.0833333,2883.26)">
                <path d="M490.999,54.143L500,58.642L491.001,63.143L490.999,54.143Z" style="fill-rule:nonzero;"/>
            </g>
        </g>
        <g transform="matrix(1,0,0,1,-2.08333,-2.23932)">
            <g transform="matrix(4.16667,-0.000575258,-0.000575258,-4.16667,0.117074,3372.17)">
                <path d="M263.917,58.628C263.917,58.628 453.222,58.628 492.8,58.628" style="fill:none;fill-rule:nonzero;stroke:black;stroke-width:3px;"/>
            </g>
        </g>
        <g transform="matrix(1,0,0,1,-2.08333,-2.23932)">
            <g transform="matrix(4.16667,0,0,4.16667,0.0833333,2095.19)">
                <path d="M27,148.712L18,153.212L27,157.712L27,148.712Z"/>
            </g>
        </g>
        <g transform="matrix(1,0,0,1,-2.08333,-2.23932)">
            <g transform="matrix(4.16667,0,0,4.16667,0.0833333,2095.19)">
                <path d="M175.5,148.712L184.5,153.212L175.5,157.712L175.5,148.712Z"/>
            </g>
        </g>
        <g transform="matrix(1,0,0,1,-2.08333,-2.23932)">
            <g transform="matrix(4.16667,0,0,4.16667,0.0833333,2095.19)">
                <path d="M25.2,153.212L177.3,153.212" style="fill:none;fill-rule:nonzero;stroke:black;stroke-width:3px;"/>
            </g>
        </g>
        <g transform="matrix(1,0,0,1,-2.08333,-2.23932)">
            <g transform="matrix(4.16667,0,0,4.16667,0.0833333,2883.39)">
                <path d="M139.822,54.128L130.822,58.628L139.822,63.128L139.822,54.128Z"/>
            </g>
        </g>
        <g transform="matrix(1,0,0,1,-2.08333,-2.23932)">
            <g transform="matrix(4.16667,0,0,4.16667,0.0833333,2883.39)">
                <path d="M175.963,54.128L184.963,58.628L175.963,63.128L175.963,54.128Z"/>
            </g>
        </g>
        <g transform="matrix(1,0,0,1,-2.08333,-2.23932)">
            <g transform="matrix(4.16667,0,0,4.16667,0.0833333,2883.39)">
                <path d="M138.022,58.628L177.763,58.628" style="fill:none;fill-rule:nonzero;stroke:black;stroke-width:3px;"/>
            </g>
        </g>
        <g transform="matrix(1,0,0,1,-2.08333,-2.23932)">
            <g transform="matrix(4.16667,0,0,4.16667,0.0833333,2095.19)">
                <path d="M193.5,148.712L184.5,153.212L193.5,157.712L193.5,148.712Z"/>
            </g>
        </g>
        <g transform="matrix(1,0,0,1,-2.08333,-2.23932)">
            <g transform="matrix(4.16667,0,0,4.16667,0.0833333,2095.19)">
                <path d="M509.5,148.712L518.5,153.212L509.5,157.712L509.5,148.712Z"/>
            </g>
        </g>
        <g transform="matrix(1,0,0,1,-2.08333,-2.23932)">
            <g transform="matrix(4.16667,0,0,4.16667,0.0833333,2095.19)">
                <path d="M191.7,153.212L511.3,153.212" style="fill:none;fill-rule:nonzero;stroke:black;stroke-width:3px;"/>
            </g>
        </g>
        <g transform="matrix(1,0,0,1,-2.08333,-2.23932)">
            <g transform="matrix(4.16667,0,0,4.16667,0.0833333,2095.19)">
                <path d="M528,148.712L519,153.212L528,157.712L528,148.712Z"/>
            </g>
        </g>
        <g transform="matrix(1,0,0,1,-2.08333,-2.23932)">
            <g transform="matrix(4.16667,0,0,4.16667,0.0833333,2095.19)">
                <path d="M676,148.712L685,153.212L676,157.712L676,148.712Z"/>
            </g>
        </g>
        <g transform="matrix(1,0,0,1,-2.08333,-2.23932)">
            <g transform="matrix(4.16667,0,0,4.16667,0.0833333,2095.19)">
                <path d="M526.2,153.212L677.8,153.212" style="fill:none;fill-rule:nonzero;stroke:black;stroke-width:3px;"/>
            </g>
        </g>
        <g transform="matrix(1,0,0,1,-2.08333,-2.23932)">
            <g transform="matrix(4.16667,0,0,4.16667,0.0833333,2431.56)">
                <path d="M3.546,112.848L717.877,112.848" style="fill:none;fill-rule:nonzero;stroke:black;stroke-width:3px;"/>
            </g>
        </g>
    </g>
</svg>
