<?xml version="1.0" encoding="UTF-8" standalone="no"?><!DOCTYPE svg PUBLIC "-//W3C//DTD SVG 1.1//EN" "http://www.w3.org/Graphics/SVG/1.1/DTD/svg11.dtd"><svg width="100%" height="100%" viewBox="0 0 2041 508" version="1.1" xmlns="http://www.w3.org/2000/svg" xmlns:xlink="http://www.w3.org/1999/xlink" xml:space="preserve" xmlns:serif="http://www.serif.com/" style="fill-rule:evenodd;clip-rule:evenodd;stroke-linecap:round;stroke-linejoin:round;stroke-miterlimit:1.5;"><g><g><path d="M274.025,103.069l153.566,88.661l0,177.322l-153.566,-88.661l0,-177.322Z" style="fill:none;stroke:#000;stroke-width:12.5px;"/><path d="M271.036,305.335c-3.983,-0.465 -8.007,-0.465 -11.991,0l-1.499,10.674c-3.583,0.66 -7.063,1.791 -10.349,3.362l-7.488,-7.754c-3.496,1.965 -6.751,4.33 -9.701,7.047l5.063,9.516c-2.511,2.64 -4.662,5.599 -6.397,8.802l-10.616,-1.873c-1.673,3.644 -2.917,7.471 -3.705,11.403l9.689,4.723c-0.479,3.611 -0.479,7.27 0,10.881l-9.689,4.723c0.788,3.932 2.032,7.758 3.705,11.403l10.616,-1.874c1.735,3.203 3.886,6.163 6.397,8.803l-5.063,9.516c2.95,2.717 6.205,5.082 9.701,7.047l7.488,-7.754c3.286,1.571 6.766,2.702 10.349,3.362l1.499,10.673c3.984,0.466 8.008,0.466 11.991,0l1.499,-10.673c3.583,-0.66 7.063,-1.791 10.35,-3.362l7.487,7.754c3.496,-1.965 6.752,-4.33 9.701,-7.047l-5.062,-9.516c2.51,-2.64 4.661,-5.6 6.396,-8.803l10.616,1.874c1.673,-3.645 2.917,-7.471 3.706,-11.403l-9.69,-4.723c0.479,-3.611 0.479,-7.27 -0,-10.881l9.69,-4.723c-0.789,-3.932 -2.033,-7.759 -3.706,-11.403l-10.616,1.873c-1.735,-3.203 -3.886,-6.162 -6.396,-8.802l5.062,-9.516c-2.949,-2.717 -6.205,-5.082 -9.701,-7.047l-7.487,7.754c-3.287,-1.571 -6.767,-2.702 -10.35,-3.362l-1.499,-10.674Zm-5.995,41.003c5.706,-0 10.339,4.632 10.339,10.337c0,5.706 -4.633,10.338 -10.339,10.338c-5.707,0 -10.34,-4.632 -10.34,-10.338c0,-5.705 4.633,-10.337 10.34,-10.337Z" style="fill:none;stroke:#000;stroke-width:8.33px;"/><path d="M258.261,280.391l0,-177.322l-153.565,88.661l-0,177.322l153.565,-88.661" style="fill:none;stroke:#000;stroke-width:12.5px;"/><path d="M243.312,262.659c-10.237,-35.465 -15.762,-113.474 -24.275,-108.547c-13.724,7.942 -4.204,124.563 -21.794,135.145c-11.82,7.11 -25.117,-21.167 -35.258,-15.108c-7.307,4.365 -4.419,33.576 -10.812,41.706c-6.329,8.048 -20.476,0 -30.713,0" style="fill:none;stroke:#000;stroke-width:12.5px;"/><path d="M289.382,271.525c20.878,-24.509 40.596,-100.688 50.834,-94.777c10.238,5.911 7.273,100.783 19.088,125.336c9.268,19.261 47.037,36.967 47.037,36.967" style="fill:none;stroke:#000;stroke-width:12.5px;"/><path d="M384.381,39.977l37.868,27.627l-37.125,28.618l-0.743,-56.245Z"/><path d="M67.604,404.517l1.444,-336.913c97.687,1.653 205.112,1.832 323.203,0.396" style="fill:none;stroke:#000;stroke-width:12.5px;"/><path d="M140.569,468.106l-37.5,-28.125l37.5,-28.125l-0,56.25Z"/><path d="M457.713,103.069l0,336.912l-324.644,0" style="fill:none;stroke:#000;stroke-width:12.5px;"/></g><g transform="matrix(0.594747,0,0,0.594747,366.474,-964.259)"><g transform="matrix(593.595,0,0,593.595,165.354,2267.72)"><path d="M0.42,-0.476l0.11,0l0,0.476l-0.11,-0l-0,-0.05c-0.045,0.043 -0.094,0.064 -0.146,0.064c-0.066,-0 -0.12,-0.024 -0.163,-0.072c-0.043,-0.048 -0.064,-0.109 -0.064,-0.181c-0,-0.072 0.021,-0.131 0.064,-0.178c0.042,-0.048 0.096,-0.072 0.16,-0.072c0.055,0 0.105,0.023 0.149,0.069l-0,-0.056Zm-0.261,0.237c0,0.045 0.012,0.082 0.037,0.111c0.025,0.029 0.056,0.044 0.095,0.044c0.04,-0 0.073,-0.014 0.098,-0.042c0.025,-0.029 0.038,-0.066 0.038,-0.111c-0,-0.044 -0.013,-0.081 -0.038,-0.11c-0.025,-0.028 -0.057,-0.043 -0.097,-0.043c-0.038,0 -0.07,0.015 -0.095,0.043c-0.025,0.029 -0.038,0.065 -0.038,0.108Z" style="fill:#5a0968;fill-rule:nonzero;"/></g><g transform="matrix(593.595,0,0,593.595,521.279,2267.72)"><path d="M0.179,-0.476l0,0.273c0,0.079 0.031,0.119 0.093,0.119c0.063,-0 0.094,-0.04 0.094,-0.119l-0,-0.273l0.11,0l-0,0.276c-0,0.038 -0.005,0.071 -0.015,0.098c-0.009,0.025 -0.024,0.047 -0.047,0.067c-0.037,0.033 -0.084,0.049 -0.142,0.049c-0.057,-0 -0.104,-0.016 -0.141,-0.049c-0.022,-0.02 -0.039,-0.042 -0.048,-0.067c-0.009,-0.022 -0.014,-0.055 -0.014,-0.098l0,-0.276l0.11,0Z" style="fill:#5a0968;fill-rule:nonzero;"/></g><g transform="matrix(593.595,0,0,593.595,844.742,2267.72)"><path d="M0.183,-0.373l-0,0.373l-0.11,-0l-0,-0.373l-0.047,-0l-0,-0.103l0.047,0l-0,-0.174l0.11,0l-0,0.174l0.085,0l0,0.103l-0.085,-0Z" style="fill:#5a0968;fill-rule:nonzero;"/></g><g transform="matrix(593.595,0,0,593.595,1011.11,2267.72)"><path d="M0.047,-0.241c-0,-0.069 0.024,-0.127 0.074,-0.176c0.049,-0.048 0.109,-0.072 0.179,-0.072c0.071,0 0.131,0.024 0.181,0.073c0.049,0.048 0.073,0.108 0.073,0.179c0,0.071 -0.024,0.131 -0.074,0.179c-0.049,0.048 -0.11,0.072 -0.182,0.072c-0.071,-0 -0.131,-0.025 -0.179,-0.074c-0.048,-0.048 -0.072,-0.108 -0.072,-0.181Zm0.112,0.002c0,0.047 0.013,0.085 0.038,0.113c0.026,0.028 0.061,0.042 0.103,0.042c0.043,-0 0.078,-0.014 0.103,-0.042c0.026,-0.028 0.039,-0.065 0.039,-0.111c-0,-0.046 -0.013,-0.083 -0.039,-0.111c-0.026,-0.028 -0.06,-0.042 -0.103,-0.042c-0.042,0 -0.076,0.014 -0.102,0.042c-0.026,0.028 -0.039,0.064 -0.039,0.109Z" style="fill:#5a0968;fill-rule:nonzero;"/></g><g transform="matrix(593.595,0,0,593.595,1367.9,2267.72)"><path d="M0.09,-0l0,-0.754l0.159,0c0.075,0 0.135,0.008 0.179,0.023c0.047,0.014 0.09,0.039 0.129,0.074c0.077,0.071 0.116,0.164 0.116,0.28c0,0.116 -0.04,0.21 -0.121,0.281c-0.041,0.036 -0.084,0.061 -0.128,0.075c-0.042,0.014 -0.101,0.021 -0.177,0.021l-0.157,-0Zm0.114,-0.107l0.051,0c0.051,0 0.094,-0.005 0.128,-0.016c0.034,-0.011 0.064,-0.03 0.092,-0.054c0.056,-0.051 0.084,-0.118 0.084,-0.2c-0,-0.083 -0.028,-0.15 -0.083,-0.201c-0.05,-0.046 -0.124,-0.069 -0.221,-0.069l-0.051,0l0,0.54Z" style="fill:#a82fbd;fill-rule:nonzero;"/></g><g transform="matrix(593.595,0,0,593.595,1798.9,2267.72)"><path d="M0.506,-0.647l-0.302,0l0,0.181l0.294,0l-0,0.107l-0.294,0l0,0.252l0.302,0l0,0.107l-0.416,0l0,-0.754l0.416,0l0,0.107Z" style="fill:#a82fbd;fill-rule:nonzero;"/></g><g transform="matrix(593.595,0,0,593.595,2134.53,2267.72)"><path d="M0.506,-0.647l-0.302,0l0,0.181l0.294,0l-0,0.107l-0.294,0l0,0.252l0.302,0l0,0.107l-0.416,0l0,-0.754l0.416,0l0,0.107Z" style="fill:#a82fbd;fill-rule:nonzero;"/></g><g transform="matrix(593.595,0,0,593.595,2470.17,2267.72)"><path d="M0.346,-0.321l0.233,0.321l-0.139,-0l-0.215,-0.309l-0.021,0l0,0.309l-0.114,-0l0,-0.754l0.134,0c0.099,0 0.171,0.019 0.215,0.056c0.049,0.042 0.074,0.097 0.074,0.165c-0,0.054 -0.016,0.1 -0.046,0.138c-0.031,0.038 -0.071,0.063 -0.121,0.074Zm-0.142,-0.087l0.036,0c0.108,0 0.162,-0.041 0.162,-0.123c-0,-0.077 -0.053,-0.116 -0.157,-0.116l-0.041,0l0,0.239Z" style="fill:#a82fbd;fill-rule:nonzero;"/></g></g></g></svg>