<?xml version="1.0" encoding="UTF-8" standalone="no"?><!DOCTYPE svg PUBLIC "-//W3C//DTD SVG 1.1//EN" "http://www.w3.org/Graphics/SVG/1.1/DTD/svg11.dtd"><svg width="100%" height="100%" viewBox="0 0 1323 520" version="1.1" xmlns="http://www.w3.org/2000/svg" xmlns:xlink="http://www.w3.org/1999/xlink" xml:space="preserve" xmlns:serif="http://www.serif.com/" style="fill-rule:evenodd;clip-rule:evenodd;stroke-linecap:round;stroke-linejoin:round;stroke-miterlimit:1.5;"><rect id="_4p-DEER" serif:id="4p DEER" x="0" y="0" width="1322.84" height="519.685" style="fill:none;"/><rect x="141.732" y="283.465" width="47.244" height="94.488" style="fill:#a82fbd;stroke:#a82fbd;stroke-width:1px;"/><rect x="283.465" y="188.976" width="47.244" height="188.976" style="fill:#a82fbd;stroke:#a82fbd;stroke-width:1px;"/><rect x="401.575" y="188.976" width="47.244" height="188.976" style="fill:#89b94e;stroke:#89b94e;stroke-width:1px;"/><g><path d="M448.819,283.465l259.842,-0" style="fill:none;"/><path d="M686.777,260.027l15.625,23.438l-15.625,23.437" style="fill:none;stroke:#89b94e;stroke-width:10.42px;stroke-linejoin:miter;stroke-miterlimit:10;"/><path d="M448.819,283.465l253.583,-0" style="fill:none;stroke:#89b94e;stroke-width:10.42px;"/></g><rect x="732.283" y="188.976" width="47.244" height="188.976" style="fill:#a82fbd;stroke:#a82fbd;stroke-width:1px;"/><path d="M185.051,155.979l-14.063,9.375l14.063,9.375" style="fill:none;stroke:#000;stroke-width:6.25px;stroke-linejoin:miter;stroke-miterlimit:10;"/><path d="M287.39,155.979l14.063,9.375l-14.063,9.375" style="fill:none;stroke:#000;stroke-width:6.25px;stroke-linejoin:miter;stroke-miterlimit:10;"/><path d="M170.988,165.354l130.465,0" style="fill:none;stroke:#000;stroke-width:6.25px;"/><path d="M326.783,155.979l-14.063,9.375l14.063,9.375" style="fill:none;stroke:#000;stroke-width:6.25px;stroke-linejoin:miter;stroke-miterlimit:10;"/><path d="M429.123,155.979l14.062,9.375l-14.062,9.375" style="fill:none;stroke:#000;stroke-width:6.25px;stroke-linejoin:miter;stroke-miterlimit:10;"/><path d="M312.72,165.354l130.465,0" style="fill:none;stroke:#000;stroke-width:6.25px;"/><path d="M468.515,155.979l-14.062,9.375l14.062,9.375" style="fill:none;stroke:#000;stroke-width:6.25px;stroke-linejoin:miter;stroke-miterlimit:10;"/><path d="M736.209,155.979l14.063,9.375l-14.063,9.375" style="fill:none;stroke:#000;stroke-width:6.25px;stroke-linejoin:miter;stroke-miterlimit:10;"/><path d="M454.453,165.354l295.819,0" style="fill:none;stroke:#000;stroke-width:6.25px;"/><path d="M775.602,155.979l-14.063,9.375l14.063,9.375" style="fill:none;stroke:#000;stroke-width:6.25px;stroke-linejoin:miter;stroke-miterlimit:10;"/><path d="M1043.3,155.979l14.062,9.375l-14.062,9.375" style="fill:none;stroke:#000;stroke-width:6.25px;stroke-linejoin:miter;stroke-miterlimit:10;"/><path d="M761.539,165.354l295.819,0" style="fill:none;stroke:#000;stroke-width:6.25px;"/><path d="M1015.75,377.953c33.578,-41.092 35.433,-94.488 47.244,-94.488c14.173,-0 10.804,54.624 47.244,94.488" style="fill:none;stroke:#000;stroke-width:6.25px;"/><path d="M141.732,377.953l1086.61,-0" style="fill:none;stroke:#808080;stroke-width:6.25px;"/><g transform="matrix(1.27433,0,0,1.27433,-57.4187,-43.022)"><g transform="matrix(33.5422,0,0,33.5422,212.598,156.622)"><path d="M0.58,-0.519l-0.01,0.052l-0.192,0l-0.064,0.325c-0.009,0.045 -0.002,0.074 0.02,0.085c0.016,0.008 0.047,0 0.093,-0.024l-0.012,0.059c-0.074,0.038 -0.13,0.037 -0.168,-0.002c-0.025,-0.027 -0.033,-0.066 -0.022,-0.118l0.063,-0.325l-0.141,0l-0.016,0.078l-0.051,0l0.026,-0.13l0.474,0Z" style="fill-rule:nonzero;"/></g><g transform="matrix(0.33,0,0,0.33,157.273,104.937)"><g transform="matrix(33.5422,0,0,33.5422,234.736,156.622)"><path d="M0.494,-0l-0.352,-0l0,-0.052l0.127,0l0,-0.606l-0.147,0.095l-0,-0.064l0.178,-0.115l0.067,0l-0,0.69l0.127,-0l-0,0.052Z" style="fill-rule:nonzero;"/></g></g></g><g transform="matrix(1.27433,0,0,1.27433,308.346,-43.7389)"><g transform="matrix(33.5422,0,0,33.5422,212.598,156.622)"><path d="M0.58,-0.519l-0.01,0.052l-0.192,0l-0.064,0.325c-0.009,0.045 -0.002,0.074 0.02,0.085c0.016,0.008 0.047,0 0.093,-0.024l-0.012,0.059c-0.074,0.038 -0.13,0.037 -0.168,-0.002c-0.025,-0.027 -0.033,-0.066 -0.022,-0.118l0.063,-0.325l-0.141,0l-0.016,0.078l-0.051,0l0.026,-0.13l0.474,0Z" style="fill-rule:nonzero;"/></g><g transform="matrix(0.33,0,0,0.33,157.273,104.937)"><g transform="matrix(33.5422,0,0,33.5422,234.736,156.622)"><path d="M0.538,-0l-0.47,-0l0,-0.053l0.221,-0.221c0.047,-0.047 0.082,-0.091 0.105,-0.134c0.021,-0.043 0.031,-0.086 0.031,-0.129c-0,-0.05 -0.013,-0.088 -0.039,-0.115c-0.025,-0.028 -0.06,-0.042 -0.105,-0.042c-0.047,0 -0.083,0.012 -0.108,0.035c-0.025,0.023 -0.04,0.057 -0.045,0.104l-0.055,0l-0,-0.13c0.034,-0.018 0.069,-0.032 0.105,-0.043c0.036,-0.009 0.071,-0.014 0.104,-0.014c0.077,0 0.137,0.018 0.18,0.055c0.044,0.037 0.066,0.087 0.066,0.15c-0,0.071 -0.05,0.157 -0.15,0.256c-0.008,0.007 -0.014,0.013 -0.017,0.017l-0.184,0.184l0.304,0l-0,-0.09l0.057,0l-0,0.17Z" style="fill-rule:nonzero;"/></g></g></g><path d="M587.863,268.927c-0.079,1.509 -0.455,2.63 -1.127,3.363c-0.731,0.69 -1.778,1.035 -3.142,1.035c-1.541,-0 -2.628,-0.367 -3.26,-1.1c-0.633,-0.797 -0.949,-2.059 -0.949,-3.783l0,-10.671l-2.341,0l-0,-1.681l2.341,-0l0,-5.206l2.668,-0l0,5.206l5.009,-0l0,1.681l-5.009,0l0,10.671c0,1.423 0.128,2.339 0.385,2.748c0.257,0.388 0.722,0.582 1.393,0.582c0.672,0 1.176,-0.226 1.512,-0.679c0.297,-0.431 0.465,-1.153 0.504,-2.166l2.016,-0Z" style="fill-rule:nonzero;"/><g transform="matrix(1.27433,0,0,1.27433,615.433,-44.047)"><g transform="matrix(33.5422,0,0,33.5422,212.598,156.622)"><path d="M0.58,-0.519l-0.01,0.052l-0.192,0l-0.064,0.325c-0.009,0.045 -0.002,0.074 0.02,0.085c0.016,0.008 0.047,0 0.093,-0.024l-0.012,0.059c-0.074,0.038 -0.13,0.037 -0.168,-0.002c-0.025,-0.027 -0.033,-0.066 -0.022,-0.118l0.063,-0.325l-0.141,0l-0.016,0.078l-0.051,0l0.026,-0.13l0.474,0Z" style="fill-rule:nonzero;"/></g><g transform="matrix(0.33,0,0,0.33,157.273,104.937)"><g transform="matrix(33.5422,0,0,33.5422,234.736,156.622)"><path d="M0.538,-0l-0.47,-0l0,-0.053l0.221,-0.221c0.047,-0.047 0.082,-0.091 0.105,-0.134c0.021,-0.043 0.031,-0.086 0.031,-0.129c-0,-0.05 -0.013,-0.088 -0.039,-0.115c-0.025,-0.028 -0.06,-0.042 -0.105,-0.042c-0.047,0 -0.083,0.012 -0.108,0.035c-0.025,0.023 -0.04,0.057 -0.045,0.104l-0.055,0l-0,-0.13c0.034,-0.018 0.069,-0.032 0.105,-0.043c0.036,-0.009 0.071,-0.014 0.104,-0.014c0.077,0 0.137,0.018 0.18,0.055c0.044,0.037 0.066,0.087 0.066,0.15c-0,0.071 -0.05,0.157 -0.15,0.256c-0.008,0.007 -0.014,0.013 -0.017,0.017l-0.184,0.184l0.304,0l-0,-0.09l0.057,0l-0,0.17Z" style="fill-rule:nonzero;"/></g></g></g></svg>