<?xml version="1.0" encoding="UTF-8" standalone="no"?><!DOCTYPE svg PUBLIC "-//W3C//DTD SVG 1.1//EN" "http://www.w3.org/Graphics/SVG/1.1/DTD/svg11.dtd"><svg width="100%" height="100%" viewBox="0 0 1323 520" version="1.1" xmlns="http://www.w3.org/2000/svg" xmlns:xlink="http://www.w3.org/1999/xlink" xml:space="preserve" xmlns:serif="http://www.serif.com/" style="fill-rule:evenodd;clip-rule:evenodd;stroke-linecap:round;stroke-linejoin:round;stroke-miterlimit:1.5;"><rect id="_5p-DEER" serif:id="5p DEER" x="0" y="0" width="1322.84" height="519.685" style="fill:none;"/><rect x="141.732" y="283.465" width="47.244" height="94.488" style="fill:#a82fbd;stroke:#a82fbd;stroke-width:1px;"/><rect x="365.491" y="188.976" width="47.244" height="188.976" style="fill:#a82fbd;stroke:#a82fbd;stroke-width:1px;"/><rect x="293.276" y="188.976" width="47.244" height="188.976" style="fill:#89b94e;stroke:#89b94e;stroke-width:1px;"/><rect x="437.008" y="188.976" width="47.244" height="188.976" style="fill:#89b94e;stroke:#89b94e;stroke-width:1px;"/><g><path d="M485.146,283.465l329.815,-0" style="fill:none;"/><path d="M793.076,260.027l15.625,23.438l-15.625,23.437" style="fill:none;stroke:#89b94e;stroke-width:10.42px;stroke-linejoin:miter;stroke-miterlimit:10;"/><path d="M485.146,283.465l323.555,-0" style="fill:none;stroke:#89b94e;stroke-width:10.42px;"/></g><rect x="814.961" y="188.976" width="47.244" height="188.976" style="fill:#a82fbd;stroke:#a82fbd;stroke-width:1px;"/><path d="M185.051,155.979l-14.063,9.375l14.063,9.375" style="fill:none;stroke:#000;stroke-width:6.25px;stroke-linejoin:miter;stroke-miterlimit:10;"/><path d="M370.068,155.979l14.062,9.375l-14.062,9.375" style="fill:none;stroke:#000;stroke-width:6.25px;stroke-linejoin:miter;stroke-miterlimit:10;"/><path d="M170.988,165.354l213.142,0" style="fill:none;stroke:#000;stroke-width:6.25px;"/><path d="M338.594,388.389l-14.063,9.375l14.063,9.375" style="fill:none;stroke:#000;stroke-width:6.25px;stroke-linejoin:miter;stroke-miterlimit:10;"/><path d="M370.718,388.389l14.062,9.375l-14.062,9.375" style="fill:none;stroke:#000;stroke-width:6.25px;stroke-linejoin:miter;stroke-miterlimit:10;"/><path d="M324.531,397.764l60.249,-0" style="fill:none;stroke:#000;stroke-width:6.25px;"/><path d="M410.11,388.389l-14.062,9.375l14.062,9.375" style="fill:none;stroke:#000;stroke-width:6.25px;stroke-linejoin:miter;stroke-miterlimit:10;"/><path d="M442.234,388.389l14.063,9.375l-14.063,9.375" style="fill:none;stroke:#000;stroke-width:6.25px;stroke-linejoin:miter;stroke-miterlimit:10;"/><path d="M396.048,397.764l60.249,-0" style="fill:none;stroke:#000;stroke-width:6.25px;"/><path d="M409.46,155.497l-14.063,9.375l14.063,9.375" style="fill:none;stroke:#000;stroke-width:6.25px;stroke-linejoin:miter;stroke-miterlimit:10;"/><path d="M594.477,155.497l14.063,9.375l-14.063,9.375" style="fill:none;stroke:#000;stroke-width:6.25px;stroke-linejoin:miter;stroke-miterlimit:10;"/><path d="M395.397,164.872l213.143,-0" style="fill:none;stroke:#000;stroke-width:6.25px;"/><path d="M633.869,155.564l-14.062,9.375l14.062,9.375" style="fill:none;stroke:#000;stroke-width:6.25px;stroke-linejoin:miter;stroke-miterlimit:10;"/><path d="M818.887,155.564l14.062,9.375l-14.062,9.375" style="fill:none;stroke:#000;stroke-width:6.25px;stroke-linejoin:miter;stroke-miterlimit:10;"/><path d="M619.807,164.939l213.142,-0" style="fill:none;stroke:#000;stroke-width:6.25px;"/><path d="M858.279,155.497l-14.063,9.375l14.063,9.375" style="fill:none;stroke:#000;stroke-width:6.25px;stroke-linejoin:miter;stroke-miterlimit:10;"/><path d="M1043.3,155.497l14.062,9.375l-14.062,9.375" style="fill:none;stroke:#000;stroke-width:6.25px;stroke-linejoin:miter;stroke-miterlimit:10;"/><path d="M844.216,164.872l213.142,-0" style="fill:none;stroke:#000;stroke-width:6.25px;"/><path d="M1015.75,377.953c33.578,-41.092 35.433,-94.488 47.244,-94.488c14.173,-0 10.804,54.624 47.244,94.488" style="fill:none;stroke:#000;stroke-width:6.25px;"/><path d="M141.732,377.953l1086.61,-0" style="fill:none;stroke:#808080;stroke-width:6.25px;"/><path d="M285.945,134.383l-0.428,2.223l-8.207,-0l-2.735,13.891c-0.371,1.938 -0.086,3.149 0.855,3.634c0.683,0.342 2.009,-0 3.975,-1.026l-0.513,2.522c-3.163,1.624 -5.557,1.595 -7.181,-0.086c-1.083,-1.14 -1.396,-2.821 -0.94,-5.044l2.692,-13.891l-6.027,-0l-0.683,3.334l-2.18,-0l1.111,-5.557l20.261,-0Z" style="fill-rule:nonzero;"/><path d="M510.354,134.383l-0.427,2.223l-8.207,-0l-2.736,13.891c-0.37,1.938 -0.085,3.149 0.855,3.634c0.684,0.342 2.009,-0 3.975,-1.026l-0.513,2.522c-3.163,1.624 -5.556,1.595 -7.181,-0.086c-1.083,-1.14 -1.396,-2.821 -0.94,-5.044l2.693,-13.891l-6.027,-0l-0.684,3.334l-2.18,-0l1.111,-5.557l20.261,-0Z" style="fill-rule:nonzero;"/><path d="M734.764,133.733l-0.428,2.223l-8.207,-0l-2.735,13.891c-0.371,1.938 -0.086,3.149 0.854,3.634c0.684,0.341 2.009,-0 3.976,-1.026l-0.513,2.522c-3.163,1.624 -5.557,1.595 -7.181,-0.086c-1.083,-1.14 -1.397,-2.821 -0.941,-5.044l2.693,-13.891l-6.027,-0l-0.684,3.334l-2.179,-0l1.111,-5.557l20.261,-0Z" style="fill-rule:nonzero;"/><path d="M655.463,264.748c-0.079,1.509 -0.455,2.63 -1.127,3.363c-0.731,0.69 -1.778,1.035 -3.142,1.035c-1.541,-0 -2.628,-0.367 -3.26,-1.099c-0.632,-0.798 -0.949,-2.059 -0.949,-3.784l0,-10.67l-2.341,-0l-0,-1.682l2.341,0l0,-5.206l2.668,0l0,5.206l5.009,0l0,1.682l-5.009,-0l0,10.67c0,1.423 0.128,2.339 0.385,2.749c0.257,0.388 0.722,0.582 1.393,0.582c0.672,-0 1.176,-0.227 1.512,-0.679c0.297,-0.431 0.465,-1.154 0.504,-2.167l2.016,0Z" style="fill-rule:nonzero;"/><path d="M959.173,133.358l-0.427,2.223l-8.207,-0l-2.736,13.891c-0.37,1.938 -0.085,3.149 0.855,3.634c0.684,0.342 2.009,-0 3.975,-1.026l-0.513,2.522c-3.163,1.624 -5.557,1.595 -7.181,-0.086c-1.083,-1.14 -1.396,-2.821 -0.94,-5.044l2.693,-13.891l-6.027,-0l-0.684,3.334l-2.18,-0l1.111,-5.557l20.261,-0Z" style="fill-rule:nonzero;"/><g transform="matrix(1.27433,0,0,1.27433,63.4338,236.048)"><g transform="matrix(33.5422,0,0,33.5422,212.598,156.622)"><path d="M0.58,-0.519l-0.01,0.052l-0.192,0l-0.064,0.325c-0.009,0.045 -0.002,0.074 0.02,0.085c0.016,0.008 0.047,0 0.093,-0.024l-0.012,0.059c-0.074,0.038 -0.13,0.037 -0.168,-0.002c-0.025,-0.027 -0.033,-0.066 -0.022,-0.118l0.063,-0.325l-0.141,0l-0.016,0.078l-0.051,0l0.026,-0.13l0.474,0Z" style="fill-rule:nonzero;"/></g><g transform="matrix(0.33,0,0,0.33,157.273,104.937)"><g transform="matrix(33.5422,0,0,33.5422,234.736,156.622)"><path d="M0.562,-0.197c0,0.067 -0.023,0.12 -0.068,0.157c-0.046,0.036 -0.112,0.054 -0.198,0.054c-0.038,0 -0.075,-0.004 -0.112,-0.012c-0.037,-0.008 -0.073,-0.02 -0.108,-0.037l-0,-0.142l0.055,0c0.003,0.046 0.018,0.082 0.047,0.107c0.029,0.024 0.069,0.036 0.12,0.036c0.05,0 0.089,-0.015 0.118,-0.044c0.029,-0.028 0.043,-0.067 0.043,-0.118c0,-0.057 -0.015,-0.101 -0.045,-0.13c-0.029,-0.029 -0.073,-0.044 -0.13,-0.044l-0.046,0l-0,-0.05l0.024,0c0.056,0 0.099,-0.012 0.128,-0.036c0.029,-0.023 0.043,-0.058 0.043,-0.106c-0,-0.042 -0.012,-0.075 -0.035,-0.098c-0.023,-0.023 -0.056,-0.034 -0.101,-0.034c-0.045,-0 -0.079,0.011 -0.103,0.032c-0.024,0.02 -0.038,0.051 -0.042,0.092l-0.055,-0l-0,-0.128c0.039,-0.015 0.076,-0.025 0.109,-0.032c0.036,-0.008 0.069,-0.012 0.099,-0.012c0.072,0 0.128,0.015 0.167,0.046c0.04,0.031 0.06,0.073 0.06,0.128c0,0.044 -0.014,0.081 -0.042,0.11c-0.027,0.029 -0.066,0.049 -0.117,0.06c0.061,0.009 0.107,0.031 0.139,0.066c0.033,0.034 0.05,0.079 0.05,0.135Z" style="fill-rule:nonzero;"/></g></g></g><g transform="matrix(1.27433,0,0,1.27433,134.95,235.15)"><g transform="matrix(33.5422,0,0,33.5422,212.598,156.622)"><path d="M0.58,-0.519l-0.01,0.052l-0.192,0l-0.064,0.325c-0.009,0.045 -0.002,0.074 0.02,0.085c0.016,0.008 0.047,0 0.093,-0.024l-0.012,0.059c-0.074,0.038 -0.13,0.037 -0.168,-0.002c-0.025,-0.027 -0.033,-0.066 -0.022,-0.118l0.063,-0.325l-0.141,0l-0.016,0.078l-0.051,0l0.026,-0.13l0.474,0Z" style="fill-rule:nonzero;"/></g><g transform="matrix(0.33,0,0,0.33,157.273,104.937)"><g transform="matrix(33.5422,0,0,33.5422,234.736,156.622)"><path d="M0.562,-0.197c0,0.067 -0.023,0.12 -0.068,0.157c-0.046,0.036 -0.112,0.054 -0.198,0.054c-0.038,0 -0.075,-0.004 -0.112,-0.012c-0.037,-0.008 -0.073,-0.02 -0.108,-0.037l-0,-0.142l0.055,0c0.003,0.046 0.018,0.082 0.047,0.107c0.029,0.024 0.069,0.036 0.12,0.036c0.05,0 0.089,-0.015 0.118,-0.044c0.029,-0.028 0.043,-0.067 0.043,-0.118c0,-0.057 -0.015,-0.101 -0.045,-0.13c-0.029,-0.029 -0.073,-0.044 -0.13,-0.044l-0.046,0l-0,-0.05l0.024,0c0.056,0 0.099,-0.012 0.128,-0.036c0.029,-0.023 0.043,-0.058 0.043,-0.106c-0,-0.042 -0.012,-0.075 -0.035,-0.098c-0.023,-0.023 -0.056,-0.034 -0.101,-0.034c-0.045,-0 -0.079,0.011 -0.103,0.032c-0.024,0.02 -0.038,0.051 -0.042,0.092l-0.055,-0l-0,-0.128c0.039,-0.015 0.076,-0.025 0.109,-0.032c0.036,-0.008 0.069,-0.012 0.099,-0.012c0.072,0 0.128,0.015 0.167,0.046c0.04,0.031 0.06,0.073 0.06,0.128c0,0.044 -0.014,0.081 -0.042,0.11c-0.027,0.029 -0.066,0.049 -0.117,0.06c0.061,0.009 0.107,0.031 0.139,0.066c0.033,0.034 0.05,0.079 0.05,0.135Z" style="fill-rule:nonzero;"/></g></g></g></svg>