<?xml version="1.0" encoding="UTF-8" standalone="no"?><!DOCTYPE svg PUBLIC "-//W3C//DTD SVG 1.1//EN" "http://www.w3.org/Graphics/SVG/1.1/DTD/svg11.dtd"><svg width="100%" height="100%" viewBox="0 0 1323 520" version="1.1" xmlns="http://www.w3.org/2000/svg" xmlns:xlink="http://www.w3.org/1999/xlink" xml:space="preserve" xmlns:serif="http://www.serif.com/" style="fill-rule:evenodd;clip-rule:evenodd;stroke-linecap:round;stroke-linejoin:round;stroke-miterlimit:1.5;"><rect id="nDEER-CP4" x="0" y="0" width="1322.84" height="519.685" style="fill:none;"/><rect x="141.732" y="283.465" width="47.244" height="94.488" style="fill:#a82fbd;stroke:#a82fbd;stroke-width:1px;"/><rect x="253.937" y="188.976" width="47.244" height="188.976" style="fill:#a82fbd;stroke:#a82fbd;stroke-width:1px;"/><rect x="346.035" y="188.804" width="47.244" height="188.976" style="fill:#89b94e;stroke:#89b94e;stroke-width:1px;"/><path d="M1017.49,259.855l15.625,23.438l-15.625,23.437" style="fill:none;stroke:#89b94e;stroke-width:10.42px;stroke-linejoin:miter;stroke-miterlimit:10;"/><path d="M393.279,283.293l639.831,-0" style="fill:none;stroke:#89b94e;stroke-width:10.42px;"/><rect x="477.997" y="188.976" width="47.244" height="188.976" style="fill:#a82fbd;stroke:#a82fbd;stroke-width:1px;"/><rect x="702.406" y="188.976" width="47.244" height="188.976" style="fill:#a82fbd;stroke:#a82fbd;stroke-width:1px;"/><rect x="927.165" y="188.804" width="47.244" height="188.976" style="fill:#a82fbd;stroke:#a82fbd;stroke-width:1px;"/><path d="M185.051,155.979l-14.063,9.375l14.063,9.375" style="fill:none;stroke:#000;stroke-width:6.25px;stroke-linejoin:miter;stroke-miterlimit:10;"/><path d="M257.863,155.979l14.062,9.375l-14.062,9.375" style="fill:none;stroke:#000;stroke-width:6.25px;stroke-linejoin:miter;stroke-miterlimit:10;"/><path d="M170.988,165.354l100.937,0" style="fill:none;stroke:#000;stroke-width:6.25px;"/><path d="M296.905,155.979l-14.062,9.375l14.062,9.375" style="fill:none;stroke:#000;stroke-width:6.25px;stroke-linejoin:miter;stroke-miterlimit:10;"/><path d="M369.718,155.979l14.062,9.375l-14.062,9.375" style="fill:none;stroke:#000;stroke-width:6.25px;stroke-linejoin:miter;stroke-miterlimit:10;"/><path d="M282.843,165.354l100.937,0" style="fill:none;stroke:#000;stroke-width:6.25px;"/><path d="M521.315,155.979l-14.063,9.375l14.063,9.375" style="fill:none;stroke:#000;stroke-width:6.25px;stroke-linejoin:miter;stroke-miterlimit:10;"/><path d="M594.127,155.979l14.063,9.375l-14.063,9.375" style="fill:none;stroke:#000;stroke-width:6.25px;stroke-linejoin:miter;stroke-miterlimit:10;"/><path d="M507.252,165.354l100.938,0" style="fill:none;stroke:#000;stroke-width:6.25px;"/><path d="M745.724,155.979l-14.062,9.375l14.062,9.375" style="fill:none;stroke:#000;stroke-width:6.25px;stroke-linejoin:miter;stroke-miterlimit:10;"/><path d="M818.537,155.979l14.062,9.375l-14.062,9.375" style="fill:none;stroke:#000;stroke-width:6.25px;stroke-linejoin:miter;stroke-miterlimit:10;"/><path d="M731.662,165.354l100.937,0" style="fill:none;stroke:#000;stroke-width:6.25px;"/><path d="M409.11,155.979l-14.062,9.375l14.062,9.375" style="fill:none;stroke:#000;stroke-width:6.25px;stroke-linejoin:miter;stroke-miterlimit:10;"/><path d="M481.923,155.979l14.062,9.375l-14.062,9.375" style="fill:none;stroke:#000;stroke-width:6.25px;stroke-linejoin:miter;stroke-miterlimit:10;"/><path d="M395.048,165.354l100.937,0" style="fill:none;stroke:#000;stroke-width:6.25px;"/><path d="M633.52,155.979l-14.063,9.375l14.063,9.375" style="fill:none;stroke:#000;stroke-width:6.25px;stroke-linejoin:miter;stroke-miterlimit:10;"/><path d="M706.332,155.979l14.063,9.375l-14.063,9.375" style="fill:none;stroke:#000;stroke-width:6.25px;stroke-linejoin:miter;stroke-miterlimit:10;"/><path d="M619.457,165.354l100.938,0" style="fill:none;stroke:#000;stroke-width:6.25px;"/><path d="M857.984,155.979l-14.063,9.375l14.063,9.375" style="fill:none;stroke:#000;stroke-width:6.25px;stroke-linejoin:miter;stroke-miterlimit:10;"/><path d="M930.796,155.979l14.062,9.375l-14.062,9.375" style="fill:none;stroke:#000;stroke-width:6.25px;stroke-linejoin:miter;stroke-miterlimit:10;"/><path d="M843.921,165.354l100.937,0" style="fill:none;stroke:#000;stroke-width:6.25px;"/><path d="M970.188,155.979l-14.062,9.375l14.062,9.375" style="fill:none;stroke:#000;stroke-width:6.25px;stroke-linejoin:miter;stroke-miterlimit:10;"/><path d="M1043,155.979l14.062,9.375l-14.062,9.375" style="fill:none;stroke:#000;stroke-width:6.25px;stroke-linejoin:miter;stroke-miterlimit:10;"/><path d="M956.126,165.354l100.937,0" style="fill:none;stroke:#000;stroke-width:6.25px;"/><path d="M1015.75,377.953c33.578,-41.092 35.433,-94.488 47.244,-94.488c14.173,-0 10.804,54.624 47.244,94.488" style="fill:none;stroke:#000;stroke-width:6.25px;"/><path d="M141.732,377.953l1086.61,-0" style="fill:none;stroke:#808080;stroke-width:6.25px;"/><path d="M229.842,135.666l-0.427,2.223l-8.207,-0l-2.736,13.891c-0.37,1.938 -0.085,3.149 0.855,3.634c0.684,0.342 2.009,-0 3.975,-1.026l-0.513,2.522c-3.163,1.624 -5.556,1.596 -7.18,-0.086c-1.083,-1.14 -1.397,-2.821 -0.941,-5.044l2.693,-13.891l-6.027,-0l-0.684,3.334l-2.18,-0l1.112,-5.557l20.26,0Z" style="fill-rule:nonzero;"/><path d="M341.697,135.666l-0.427,2.223l-8.207,-0l-2.736,13.891c-0.37,1.938 -0.085,3.149 0.855,3.634c0.684,0.342 2.009,-0 3.975,-1.026l-0.513,2.522c-3.163,1.624 -5.556,1.596 -7.181,-0.086c-1.082,-1.14 -1.396,-2.821 -0.94,-5.044l2.693,-13.891l-6.027,-0l-0.684,3.334l-2.18,-0l1.112,-5.557l20.26,0Z" style="fill-rule:nonzero;"/><path d="M453.902,135.666l-0.428,2.223l-8.206,-0l-2.736,13.891c-0.37,1.938 -0.085,3.149 0.855,3.634c0.684,0.342 2.009,-0 3.975,-1.026l-0.513,2.522c-3.163,1.624 -5.557,1.596 -7.181,-0.086c-1.083,-1.14 -1.396,-2.821 -0.94,-5.044l2.693,-13.891l-6.027,-0l-0.684,3.334l-2.18,-0l1.111,-5.557l20.261,0Z" style="fill-rule:nonzero;"/><path d="M566.107,135.666l-0.428,2.223l-8.207,-0l-2.735,13.891c-0.371,1.938 -0.086,3.149 0.855,3.634c0.684,0.342 2.009,-0 3.975,-1.026l-0.513,2.522c-3.163,1.624 -5.557,1.596 -7.181,-0.086c-1.083,-1.14 -1.396,-2.821 -0.94,-5.044l2.692,-13.891l-6.026,-0l-0.684,3.334l-2.18,-0l1.111,-5.557l20.261,0Z" style="fill-rule:nonzero;"/><path d="M678.311,135.666l-0.427,2.223l-8.207,-0l-2.736,13.891c-0.37,1.938 -0.085,3.149 0.855,3.634c0.684,0.342 2.009,-0 3.976,-1.026l-0.513,2.522c-3.163,1.624 -5.557,1.596 -7.181,-0.086c-1.083,-1.14 -1.397,-2.821 -0.941,-5.044l2.693,-13.891l-6.027,-0l-0.684,3.334l-2.18,-0l1.112,-5.557l20.26,0Z" style="fill-rule:nonzero;"/><path d="M790.516,135.666l-0.427,2.223l-8.207,-0l-2.736,13.891c-0.37,1.938 -0.085,3.149 0.855,3.634c0.684,0.342 2.009,-0 3.975,-1.026l-0.513,2.522c-3.163,1.624 -5.556,1.596 -7.181,-0.086c-1.082,-1.14 -1.396,-2.821 -0.94,-5.044l2.693,-13.891l-6.027,-0l-0.684,3.334l-2.18,-0l1.111,-5.557l20.261,0Z" style="fill-rule:nonzero;"/><path d="M902.775,135.666l-0.427,2.223l-8.207,-0l-2.736,13.891c-0.37,1.938 -0.085,3.149 0.855,3.634c0.684,0.342 2.009,-0 3.975,-1.026l-0.512,2.522c-3.163,1.624 -5.557,1.596 -7.181,-0.086c-1.083,-1.14 -1.397,-2.821 -0.941,-5.044l2.693,-13.891l-6.027,-0l-0.684,3.334l-2.18,-0l1.112,-5.557l20.26,0Z" style="fill-rule:nonzero;"/><path d="M1014.98,135.666l-0.427,2.223l-8.207,-0l-2.736,13.891c-0.37,1.938 -0.085,3.149 0.855,3.634c0.684,0.342 2.009,-0 3.975,-1.026l-0.513,2.522c-3.163,1.624 -5.556,1.596 -7.181,-0.086c-1.083,-1.14 -1.396,-2.821 -0.94,-5.044l2.693,-13.891l-6.027,-0l-0.684,3.334l-2.18,-0l1.111,-5.557l20.261,0Z" style="fill-rule:nonzero;"/><path d="M619.351,264.354c-0.082,1.565 -0.471,2.728 -1.168,3.488c-0.758,0.716 -1.845,1.074 -3.259,1.074c-1.599,-0 -2.726,-0.381 -3.382,-1.141c-0.656,-0.827 -0.984,-2.135 -0.984,-3.924l-0,-11.069l-2.429,-0l-0,-1.744l2.429,-0l-0,-5.401l2.767,0l0,5.401l5.196,-0l0,1.744l-5.196,-0l0,11.069c0,1.476 0.133,2.426 0.4,2.851c0.266,0.402 0.748,0.604 1.445,0.604c0.697,-0 1.22,-0.235 1.568,-0.705c0.307,-0.447 0.482,-1.196 0.523,-2.247l2.09,-0Z" style="fill-rule:nonzero;stroke:#000;stroke-width:1px;stroke-linecap:butt;stroke-miterlimit:2;"/></svg>