<?xml version="1.0" encoding="UTF-8" standalone="no"?><!DOCTYPE svg PUBLIC "-//W3C//DTD SVG 1.1//EN" "http://www.w3.org/Graphics/SVG/1.1/DTD/svg11.dtd"><svg width="100%" height="100%" viewBox="0 0 1323 520" version="1.1" xmlns="http://www.w3.org/2000/svg" xmlns:xlink="http://www.w3.org/1999/xlink" xml:space="preserve" xmlns:serif="http://www.serif.com/" style="fill-rule:evenodd;clip-rule:evenodd;stroke-linecap:round;stroke-linejoin:round;stroke-miterlimit:1.5;"><rect id="_7p-DEER" serif:id="7p DEER" x="0" y="0" width="1322.84" height="519.685" style="fill:none;"/><rect x="141.732" y="283.465" width="47.244" height="94.488" style="fill:#a82fbd;stroke:#a82fbd;stroke-width:1px;"/><rect x="291.339" y="188.976" width="47.244" height="188.976" style="fill:#a82fbd;stroke:#a82fbd;stroke-width:1px;"/><rect x="590.078" y="188.976" width="47.244" height="188.976" style="fill:#a82fbd;stroke:#a82fbd;stroke-width:1px;"/><rect x="344.52" y="188.976" width="47.244" height="188.976" style="fill:#89b94e;stroke:#89b94e;stroke-width:1px;"/><rect x="841.229" y="188.976" width="47.244" height="188.976" style="fill:#89b94e;stroke:#cce1b3;stroke-width:1px;"/><rect x="660.803" y="188.976" width="47.244" height="188.976" style="fill:#89b94e;stroke:#89b94e;stroke-width:1px;"/><path d="M544.028,260.027l15.625,23.438l-15.625,23.437" style="fill:none;stroke:#89b94e;stroke-width:10.42px;stroke-linejoin:miter;stroke-miterlimit:10;"/><path d="M391.764,283.465l167.889,-0" style="fill:none;stroke:#89b94e;stroke-width:10.42px;"/><g><path d="M840.945,283.465l-108.662,-0" style="fill:none;"/><path d="M754.168,306.902l-15.625,-23.437l15.625,-23.438" style="fill:none;stroke:#89b94e;stroke-width:10.42px;stroke-linejoin:miter;stroke-miterlimit:10;"/><path d="M840.945,283.465l-102.402,-0" style="fill:none;stroke:#89b94e;stroke-width:10.42px;"/></g><rect x="894.267" y="188.976" width="47.244" height="188.976" style="fill:#a82fbd;stroke:#a82fbd;stroke-width:1px;"/><path d="M185.051,155.979l-14.063,9.375l14.063,9.375" style="fill:none;stroke:#000;stroke-width:6.25px;stroke-linejoin:miter;stroke-miterlimit:10;"/><path d="M295.264,155.979l14.063,9.375l-14.063,9.375" style="fill:none;stroke:#000;stroke-width:6.25px;stroke-linejoin:miter;stroke-miterlimit:10;"/><path d="M170.988,165.354l138.339,0" style="fill:none;stroke:#000;stroke-width:6.25px;"/><path d="M484.263,155.979l-14.062,9.375l14.062,9.375" style="fill:none;stroke:#000;stroke-width:6.25px;stroke-linejoin:miter;stroke-miterlimit:10;"/><path d="M594.477,155.979l14.063,9.375l-14.063,9.375" style="fill:none;stroke:#000;stroke-width:6.25px;stroke-linejoin:miter;stroke-miterlimit:10;"/><path d="M470.201,165.354l138.339,0" style="fill:none;stroke:#000;stroke-width:6.25px;"/><path d="M334.657,155.979l-14.063,9.375l14.063,9.375" style="fill:none;stroke:#000;stroke-width:6.25px;stroke-linejoin:miter;stroke-miterlimit:10;"/><path d="M444.871,155.979l14.062,9.375l-14.062,9.375" style="fill:none;stroke:#000;stroke-width:6.25px;stroke-linejoin:miter;stroke-miterlimit:10;"/><path d="M320.594,165.354l138.339,0" style="fill:none;stroke:#000;stroke-width:6.25px;"/><path d="M633.869,155.979l-14.062,9.375l14.062,9.375" style="fill:none;stroke:#000;stroke-width:6.25px;stroke-linejoin:miter;stroke-miterlimit:10;"/><path d="M744.083,155.979l14.063,9.375l-14.063,9.375" style="fill:none;stroke:#000;stroke-width:6.25px;stroke-linejoin:miter;stroke-miterlimit:10;"/><path d="M619.807,165.354l138.339,0" style="fill:none;stroke:#000;stroke-width:6.25px;"/><path d="M783.476,155.979l-14.063,9.375l14.063,9.375" style="fill:none;stroke:#000;stroke-width:6.25px;stroke-linejoin:miter;stroke-miterlimit:10;"/><path d="M893.69,155.979l14.062,9.375l-14.062,9.375" style="fill:none;stroke:#000;stroke-width:6.25px;stroke-linejoin:miter;stroke-miterlimit:10;"/><path d="M769.413,165.354l138.339,0" style="fill:none;stroke:#000;stroke-width:6.25px;"/><path d="M933.082,155.979l-14.062,9.375l14.062,9.375" style="fill:none;stroke:#000;stroke-width:6.25px;stroke-linejoin:miter;stroke-miterlimit:10;"/><path d="M1043.3,155.979l14.062,9.375l-14.062,9.375" style="fill:none;stroke:#000;stroke-width:6.25px;stroke-linejoin:miter;stroke-miterlimit:10;"/><path d="M919.02,165.354l138.338,0" style="fill:none;stroke:#000;stroke-width:6.25px;"/><path d="M1015.75,377.953c33.578,-41.092 35.433,-94.488 47.244,-94.488c14.173,-0 10.804,54.624 47.244,94.488" style="fill:none;stroke:#000;stroke-width:6.25px;"/><path d="M141.732,377.953l1086.61,-0" style="fill:none;stroke:#808080;stroke-width:6.25px;"/><path d="M484.248,270.224c-0.079,1.509 -0.455,2.63 -1.127,3.363c-0.731,0.69 -1.778,1.035 -3.142,1.035c-1.541,-0 -2.628,-0.367 -3.26,-1.099c-0.633,-0.798 -0.949,-2.059 -0.949,-3.784l0,-10.67l-2.341,-0l-0,-1.682l2.341,0l0,-5.206l2.668,0l-0,5.206l5.009,0l0,1.682l-5.009,-0l-0,10.67c-0,1.423 0.128,2.339 0.385,2.749c0.257,0.388 0.722,0.582 1.393,0.582c0.672,-0 1.176,-0.227 1.512,-0.679c0.297,-0.431 0.464,-1.154 0.504,-2.167l2.016,0Z" style="fill-rule:nonzero;"/><path d="M792.024,270.224c-0.079,1.509 -0.455,2.63 -1.127,3.363c-0.731,0.69 -1.778,1.035 -3.142,1.035c-1.541,-0 -2.628,-0.367 -3.26,-1.099c-0.633,-0.798 -0.949,-2.059 -0.949,-3.784l0,-10.67l-2.341,-0l-0,-1.682l2.341,0l0,-5.206l2.668,0l0,5.206l5.009,0l0,1.682l-5.009,-0l0,10.67c0,1.423 0.128,2.339 0.385,2.749c0.257,0.388 0.722,0.582 1.393,0.582c0.672,-0 1.176,-0.227 1.512,-0.679c0.297,-0.431 0.465,-1.154 0.504,-2.167l2.016,0Z" style="fill-rule:nonzero;"/><path d="M251.382,137.77l-0.449,2.222l-8.62,0l-2.874,13.892c-0.389,1.938 -0.09,3.149 0.898,3.633c0.718,0.342 2.11,0 4.176,-1.026l-0.539,2.522c-3.323,1.625 -5.837,1.596 -7.543,-0.085c-1.138,-1.14 -1.467,-2.821 -0.988,-5.044l2.829,-13.892l-6.331,0l-0.719,3.334l-2.29,0l1.168,-5.556l21.282,-0Z" style="fill-rule:nonzero;"/><path d="M400.989,137.77l-0.449,2.222l-8.621,0l-2.874,13.892c-0.389,1.938 -0.089,3.149 0.898,3.633c0.719,0.342 2.111,0 4.176,-1.026l-0.539,2.522c-3.322,1.625 -5.837,1.596 -7.543,-0.085c-1.137,-1.14 -1.467,-2.821 -0.988,-5.044l2.829,-13.892l-6.331,0l-0.718,3.334l-2.29,0l1.167,-5.556l21.283,-0Z" style="fill-rule:nonzero;"/><path d="M550.595,137.77l-0.449,2.222l-8.621,0l-2.873,13.892c-0.389,1.938 -0.09,3.149 0.898,3.633c0.718,0.342 2.11,0 4.175,-1.026l-0.538,2.522c-3.323,1.625 -5.837,1.596 -7.544,-0.085c-1.137,-1.14 -1.466,-2.821 -0.987,-5.044l2.828,-13.892l-6.331,0l-0.718,3.334l-2.29,0l1.167,-5.556l21.283,-0Z" style="fill-rule:nonzero;"/><path d="M700.201,137.77l-0.449,2.222l-8.62,0l-2.874,13.892c-0.389,1.938 -0.09,3.149 0.898,3.633c0.718,0.342 2.11,0 4.176,-1.026l-0.539,2.522c-3.323,1.625 -5.837,1.596 -7.543,-0.085c-1.138,-1.14 -1.467,-2.821 -0.988,-5.044l2.829,-13.892l-6.331,0l-0.719,3.334l-2.29,0l1.168,-5.556l21.282,-0Z" style="fill-rule:nonzero;"/><path d="M849.808,137.77l-0.449,2.222l-8.621,0l-2.874,13.892c-0.389,1.938 -0.09,3.149 0.898,3.633c0.719,0.342 2.111,0 4.176,-1.026l-0.539,2.522c-3.322,1.625 -5.837,1.596 -7.543,-0.085c-1.137,-1.14 -1.467,-2.821 -0.988,-5.044l2.829,-13.892l-6.331,0l-0.718,3.334l-2.29,0l1.167,-5.556l21.283,-0Z" style="fill-rule:nonzero;"/><path d="M999.414,137.77l-0.449,2.222l-8.621,0l-2.873,13.892c-0.39,1.938 -0.09,3.149 0.898,3.633c0.718,0.342 2.11,0 4.175,-1.026l-0.539,2.522c-3.322,1.625 -5.837,1.596 -7.543,-0.085c-1.137,-1.14 -1.466,-2.821 -0.988,-5.044l2.829,-13.892l-6.331,0l-0.718,3.334l-2.29,0l1.167,-5.556l21.283,-0Z" style="fill-rule:nonzero;"/></svg>