<?xml version="1.0" encoding="UTF-8" standalone="no"?><!DOCTYPE svg PUBLIC "-//W3C//DTD SVG 1.1//EN" "http://www.w3.org/Graphics/SVG/1.1/DTD/svg11.dtd"><svg width="100%" height="100%" viewBox="0 0 1742 524" version="1.1" xmlns="http://www.w3.org/2000/svg" xmlns:xlink="http://www.w3.org/1999/xlink" xml:space="preserve" xmlns:serif="http://www.serif.com/" style="fill-rule:evenodd;clip-rule:evenodd;stroke-linecap:round;stroke-linejoin:round;stroke-miterlimit:1.5;"><rect id="Artboard1" x="0" y="0" width="1741.83" height="523.74" style="fill:none;"/><g><g><path d="M664.983,16.542l15.274,11.143l-14.974,11.542l-0.3,-22.685Z"/><path d="M537.214,163.575l0.583,-135.89c39.401,0.666 82.729,0.739 130.36,0.159" style="fill:none;stroke:#000;stroke-width:5.04px;"/><path d="M566.644,189.223l-15.125,-11.344l15.125,-11.344l-0,22.688Z"/><path d="M694.561,41.989l-0,135.89l-130.942,-0" style="fill:none;stroke:#000;stroke-width:5.04px;"/></g><g><g><path d="M757.221,87.765l15.713,-0l0,67.72l-15.713,0l-0,-7.092c-6.443,6.026 -13.373,9.039 -20.789,9.039c-9.363,0 -17.104,-3.384 -23.223,-10.151c-6.072,-6.906 -9.108,-15.528 -9.108,-25.865c-0,-10.151 3.036,-18.61 9.108,-25.378c6.072,-6.767 13.674,-10.151 22.806,-10.151c7.879,0 14.948,3.245 21.206,9.734l-0,-7.856Zm-37.128,33.651c-0,6.49 1.738,11.774 5.214,15.853c3.569,4.125 8.065,6.188 13.489,6.188c5.794,-0 10.475,-1.993 14.044,-5.98c3.57,-4.125 5.354,-9.363 5.354,-15.713c0,-6.35 -1.784,-11.588 -5.354,-15.713c-3.569,-4.033 -8.204,-6.049 -13.905,-6.049c-5.377,-0 -9.873,2.039 -13.489,6.118c-3.569,4.125 -5.353,9.224 -5.353,15.296Z" style="fill:#3b6809;fill-rule:nonzero;"/><path d="M808.324,87.765l0,38.866c0,11.217 4.427,16.826 13.28,16.826c8.853,-0 13.28,-5.609 13.28,-16.826l0,-38.866l15.644,-0l0,39.214c0,5.423 -0.672,10.104 -2.016,14.044c-1.298,3.523 -3.546,6.698 -6.745,9.526c-5.284,4.589 -12.005,6.883 -20.163,6.883c-8.112,0 -14.809,-2.294 -20.094,-6.883c-3.244,-2.828 -5.539,-6.003 -6.883,-9.526c-1.298,-3.152 -1.947,-7.833 -1.947,-14.044l0,-39.214l15.644,-0Z" style="fill:#3b6809;fill-rule:nonzero;"/><path d="M886.405,102.366l-0,53.119l-15.644,0l-0,-53.119l-6.675,-0l0,-14.601l6.675,-0l-0,-24.822l15.644,-0l-0,24.822l12.167,-0l0,14.601l-12.167,-0Z" style="fill:#3b6809;fill-rule:nonzero;"/><path d="M906.985,121.138c-0,-9.78 3.5,-18.1 10.499,-24.96c6.999,-6.861 15.528,-10.291 25.586,-10.291c10.105,0 18.68,3.454 25.726,10.36c6.953,6.907 10.429,15.389 10.429,25.448c0,10.151 -3.5,18.656 -10.499,25.516c-7.045,6.814 -15.69,10.221 -25.934,10.221c-10.151,0 -18.657,-3.476 -25.517,-10.429c-6.86,-6.86 -10.29,-15.482 -10.29,-25.865Zm15.991,0.278c0,6.768 1.808,12.122 5.424,16.061c3.708,3.987 8.598,5.98 14.67,5.98c6.119,-0 11.009,-1.97 14.671,-5.91c3.662,-3.94 5.493,-9.201 5.493,-15.783c-0,-6.582 -1.831,-11.843 -5.493,-15.783c-3.708,-3.986 -8.599,-5.979 -14.671,-5.979c-5.979,-0 -10.823,1.993 -14.531,5.979c-3.708,3.986 -5.563,9.131 -5.563,15.435Z" style="fill:#3b6809;fill-rule:nonzero;"/></g><path d="M1058,63.36l-43.038,0l-0,25.795l41.786,0l0,15.227l-41.786,-0l-0,35.877l43.038,-0l-0,15.226l-59.239,0l0,-107.352l59.239,0l-0,15.227Z" style="fill:#6d973e;fill-rule:nonzero;"/><path d="M1095.48,111.891l-0,43.594l-16.201,0l0,-107.352l18.356,0c8.992,0 15.783,0.626 20.372,1.878c4.635,1.251 8.714,3.615 12.237,7.092c6.165,6.025 9.247,13.627 9.247,22.805c0,9.827 -3.291,17.614 -9.873,23.361c-6.582,5.748 -15.458,8.622 -26.629,8.622l-7.509,-0Zm-0,-15.018l6.049,-0c14.879,-0 22.318,-5.725 22.318,-17.174c0,-11.078 -7.671,-16.617 -23.014,-16.617l-5.353,-0l-0,33.791Z" style="fill:#6d973e;fill-rule:nonzero;"/><path d="M1192.54,109.736l33.235,45.749l-19.816,0l-30.662,-43.942l-2.92,0l0,43.942l-16.2,0l0,-107.352l18.981,0c14.184,0 24.428,2.666 30.732,7.996c6.953,5.933 10.429,13.767 10.429,23.501c0,7.602 -2.178,14.137 -6.536,19.607c-4.357,5.469 -10.104,8.969 -17.243,10.499Zm-20.163,-12.307l5.145,0c15.343,0 23.014,-5.864 23.014,-17.591c0,-10.985 -7.463,-16.478 -22.388,-16.478l-5.771,0l0,34.069Z" style="fill:#6d973e;fill-rule:nonzero;"/></g></g><g><path d="M589.725,155.855l0,-23.216l5.289,0l-0,-33.178l-5.289,0l0,-23.216l-21.248,0l-0,79.61l21.248,-0Z" style="stroke:#000;stroke-width:5.04px;"/><path d="M640.106,155.855l0,-23.216l-5.288,0l0,-33.178l5.288,0l0,-23.216l21.249,0l-0,79.61l-21.249,-0Z" style="stroke:#000;stroke-width:5.04px;"/><rect x="607.667" y="76.245" width="16.869" height="71.399" style="fill:none;stroke:#000;stroke-width:5.04px;"/><path d="M608.282,49.709l32.509,-0" style="fill:none;stroke:#000;stroke-width:1.68px;"/><rect x="562.841" y="49.709" width="42.97" height="13.268" style="stroke:#000;stroke-width:5.04px;"/><rect x="640.791" y="49.709" width="27.168" height="13.268" style="stroke:#000;stroke-width:5.04px;"/><circle cx="605.811" cy="62.313" r="0.663" style="fill:#fff;"/><path d="M608.282,56.343l7.82,-0l-0,19.902" style="fill:none;stroke:#000;stroke-width:1.68px;"/><path d="M616.102,119.179l-0,-39.367" style="fill:none;stroke:#000;stroke-width:0.84px;"/><path d="M616.102,119.179l-0,-5.018" style="fill:none;stroke:#000;stroke-width:1.68px;"/></g><path d="M455.846,289.111l-12.5,12.5l-12.5,-12.5" style="fill:none;stroke:#000;stroke-width:8.33px;stroke-linejoin:miter;stroke-miterlimit:10;"/><path d="M868.543,205.314l0,40.742l-425.197,-0l0,55.555" style="fill:none;stroke:#000;stroke-width:8.33px;"/><path d="M1306.04,289.111l-12.5,12.5l-12.5,-12.5" style="fill:none;stroke:#000;stroke-width:8.33px;stroke-linejoin:miter;stroke-miterlimit:10;"/><path d="M868.346,205.314l0,40.742l425.197,-0l0,55.555" style="fill:none;stroke:#000;stroke-width:8.33px;"/><g><g><path d="M110.954,361.284l61.768,35.662l0,71.323l-61.768,-35.662l0,-71.323Z" style="fill:none;stroke:#000;stroke-width:5.03px;"/><path d="M109.752,442.64c-1.602,-0.187 -3.221,-0.187 -4.823,0l-0.603,4.294c-1.441,0.265 -2.841,0.72 -4.163,1.352l-3.012,-3.119c-1.406,0.791 -2.715,1.742 -3.902,2.835l2.037,3.827c-1.01,1.062 -1.875,2.252 -2.573,3.541l-4.27,-0.754c-0.673,1.466 -1.173,3.005 -1.49,4.587l3.897,1.9c-0.193,1.452 -0.193,2.924 -0,4.376l-3.897,1.9c0.317,1.581 0.817,3.12 1.49,4.586l4.27,-0.753c0.698,1.288 1.563,2.479 2.573,3.54l-2.037,3.828c1.187,1.093 2.496,2.044 3.902,2.835l3.012,-3.119c1.322,0.632 2.722,1.087 4.163,1.352l0.603,4.293c1.602,0.187 3.221,0.187 4.823,-0l0.603,-4.293c1.441,-0.265 2.841,-0.72 4.163,-1.352l3.011,3.119c1.407,-0.791 2.716,-1.742 3.902,-2.835l-2.036,-3.828c1.01,-1.061 1.875,-2.252 2.573,-3.54l4.27,0.753c0.673,-1.466 1.173,-3.005 1.491,-4.586l-3.898,-1.9c0.193,-1.452 0.193,-2.924 0,-4.376l3.898,-1.9c-0.318,-1.582 -0.818,-3.121 -1.491,-4.587l-4.27,0.754c-0.698,-1.289 -1.563,-2.479 -2.573,-3.541l2.036,-3.827c-1.186,-1.093 -2.495,-2.044 -3.902,-2.835l-3.011,3.119c-1.322,-0.632 -2.722,-1.087 -4.163,-1.352l-0.603,-4.294Zm-2.411,16.493c2.295,-0 4.158,1.863 4.158,4.158c0,2.295 -1.863,4.158 -4.158,4.158c-2.296,-0 -4.159,-1.863 -4.159,-4.158c-0,-2.295 1.863,-4.158 4.159,-4.158Z" style="fill:none;stroke:#000;stroke-width:3.35px;"/><path d="M104.614,432.607l-0,-71.323l-61.768,35.662l-0,71.323l61.768,-35.662" style="fill:none;stroke:#000;stroke-width:5.03px;"/><path d="M98.601,425.475c-4.118,-14.265 -6.34,-45.642 -9.764,-43.66c-5.521,3.194 -1.691,50.102 -8.766,54.358c-4.755,2.86 -10.103,-8.514 -14.182,-6.076c-2.939,1.755 -1.778,13.505 -4.349,16.775c-2.546,3.237 -8.236,-0 -12.354,-0" style="fill:none;stroke:#000;stroke-width:5.03px;"/><path d="M117.131,429.041c8.398,-9.858 16.329,-40.499 20.447,-38.122c4.118,2.378 2.925,40.538 7.678,50.414c3.727,7.747 18.919,14.869 18.919,14.869" style="fill:none;stroke:#000;stroke-width:5.03px;"/><path d="M155.342,335.907l15.232,11.112l-14.933,11.511l-0.299,-22.623Z"/><path d="M27.926,482.534l0.581,-135.515c39.292,0.665 82.502,0.737 130.001,0.159" style="fill:none;stroke:#000;stroke-width:5.03px;"/><path d="M57.275,508.111l-15.084,-11.313l15.084,-11.312l-0,22.625Z"/><path d="M184.838,361.284l0,135.514l-130.58,0" style="fill:none;stroke:#000;stroke-width:5.03px;"/></g><g><g><path d="M247.337,406.874l15.62,0l-0,67.593l-15.62,-0l-0,-7.1c-6.39,6.106 -13.349,9.088 -20.733,9.088c-9.372,-0 -17.04,-3.408 -23.146,-10.224c-6.106,-6.816 -9.088,-15.478 -9.088,-25.703c0,-10.224 2.982,-18.602 9.088,-25.276c5.964,-6.816 13.632,-10.224 22.72,-10.224c7.81,0 14.911,3.266 21.159,9.798l-0,-7.952Zm-37.063,33.654c0,6.391 1.704,11.645 5.254,15.763c3.55,4.118 7.952,6.248 13.49,6.248c5.68,-0 10.366,-1.988 13.917,-5.964c3.55,-4.118 5.396,-9.372 5.396,-15.763c-0,-6.248 -1.846,-11.502 -5.396,-15.62c-3.551,-3.976 -8.095,-6.106 -13.775,-6.106c-5.396,0 -9.94,2.13 -13.49,6.106c-3.55,4.118 -5.396,9.23 -5.396,15.336Z" style="fill:#5a0968;fill-rule:nonzero;"/></g><g><path d="M298.26,406.874l-0,38.767c-0,11.218 4.402,16.898 13.206,16.898c8.946,-0 13.348,-5.68 13.348,-16.898l-0,-38.767l15.62,0l-0,39.193c-0,5.396 -0.71,10.082 -2.13,13.916c-1.278,3.55 -3.408,6.674 -6.674,9.514c-5.254,4.686 -11.928,6.958 -20.164,6.958c-8.094,-0 -14.768,-2.272 -20.023,-6.958c-3.124,-2.84 -5.538,-5.964 -6.816,-9.514c-1.278,-3.124 -1.988,-7.81 -1.988,-13.916l0,-39.193l15.621,0Z" style="fill:#5a0968;fill-rule:nonzero;"/></g><g><path d="M376.207,421.5l0,52.967l-15.62,-0l0,-52.967l-6.674,0l0,-14.626l6.674,0l0,-24.708l15.62,-0l0,24.708l12.07,0l0,14.626l-12.07,0Z" style="fill:#5a0968;fill-rule:nonzero;"/></g><g><path d="M396.694,440.244c0,-9.798 3.408,-18.034 10.508,-24.992c6.958,-6.816 15.478,-10.224 25.418,-10.224c10.082,0 18.603,3.408 25.703,10.366c6.958,6.816 10.366,15.336 10.366,25.418c-0,10.083 -3.408,18.603 -10.508,25.419c-6.958,6.816 -15.621,10.224 -25.845,10.224c-10.082,-0 -18.602,-3.55 -25.418,-10.508c-6.816,-6.816 -10.224,-15.336 -10.224,-25.703Zm15.904,0.284c0,6.675 1.846,12.071 5.396,16.047c3.692,3.976 8.662,5.964 14.626,5.964c6.106,-0 11.076,-1.988 14.626,-5.964c3.693,-3.976 5.539,-9.23 5.539,-15.763c-0,-6.532 -1.846,-11.786 -5.539,-15.762c-3.692,-3.976 -8.52,-5.964 -14.626,-5.964c-5.964,0 -10.792,1.988 -14.484,5.964c-3.692,3.976 -5.538,9.088 -5.538,15.478Z" style="fill:#5a0968;fill-rule:nonzero;"/></g><g><path d="M488.152,474.467l0,-107.069l22.579,-0c10.65,-0 19.17,1.136 25.418,3.266c6.674,1.988 12.78,5.538 18.318,10.508c10.934,10.082 16.472,23.288 16.472,39.76c0,16.472 -5.68,29.821 -17.182,39.903c-5.822,5.112 -11.928,8.662 -18.176,10.65c-5.964,1.988 -14.342,2.982 -25.134,2.982l-22.295,-0Zm16.188,-15.194l7.243,-0c7.242,-0 13.348,-0.71 18.176,-2.272c4.828,-1.562 9.088,-4.26 13.064,-7.668c7.952,-7.243 11.928,-16.757 11.928,-28.401c-0,-11.786 -3.976,-21.3 -11.786,-28.542c-7.1,-6.532 -17.608,-9.798 -31.382,-9.798l-7.243,-0l0,76.681Z" style="fill:#a82fbd;fill-rule:nonzero;"/></g><g><path d="M650.33,382.592l-42.885,-0l0,25.702l41.749,0l-0,15.194l-41.749,0l0,35.785l42.885,-0l-0,15.194l-59.073,-0l0,-107.069l59.073,-0l-0,15.194Z" style="fill:#a82fbd;fill-rule:nonzero;"/></g><g><path d="M730.62,382.592l-42.884,-0l-0,25.702l41.748,0l0,15.194l-41.748,0l-0,35.785l42.884,-0l0,15.194l-59.072,-0l-0,-107.069l59.072,-0l0,15.194Z" style="fill:#a82fbd;fill-rule:nonzero;"/></g><g><path d="M788.193,428.884l33.086,45.583l-19.738,-0l-30.531,-43.879l-2.982,0l0,43.879l-16.188,-0l0,-107.069l19.028,-0c14.058,-0 24.283,2.698 30.531,7.952c6.958,5.964 10.508,13.774 10.508,23.43c-0,7.668 -2.272,14.2 -6.532,19.596c-4.402,5.396 -10.082,8.946 -17.182,10.508Zm-20.165,-12.354l5.112,0c15.337,0 23.005,-5.822 23.005,-17.466c-0,-10.934 -7.526,-16.472 -22.295,-16.472l-5.822,-0l0,33.938Z" style="fill:#a82fbd;fill-rule:nonzero;"/></g></g></g><rect x="916.276" y="349.827" width="820.866" height="123.031" style="fill:#ebebeb;stroke:#000;stroke-width:8.33px;stroke-dasharray:25,25,0,0;"/><path d="M1035.23,393.886l20.947,0l0,4.151l-16.015,-0l-0,10.742l14.453,0l-0,4.15l-14.453,0l-0,17.408l-4.932,-0l-0,-36.451Z" style="fill-rule:nonzero;"/><path d="M1060.59,419.546l0,-16.553l4.492,-0l0,16.382c0,2.588 0.505,4.529 1.514,5.823c1.009,1.293 2.523,1.94 4.541,1.94c2.425,0 4.342,-0.773 5.749,-2.319c1.408,-1.546 2.112,-3.654 2.112,-6.323l0,-15.503l4.492,-0l0,27.344l-4.492,-0l0,-4.2c-1.09,1.661 -2.356,2.894 -3.796,3.699c-1.441,0.806 -3.113,1.209 -5.017,1.209c-3.141,-0 -5.526,-0.977 -7.154,-2.93c-1.627,-1.953 -2.441,-4.81 -2.441,-8.569Zm11.304,-17.212" style="fill-rule:nonzero;"/><path d="M1097.19,395.229l-0,7.764l9.253,-0l-0,3.491l-9.253,0l-0,14.844c-0,2.23 0.305,3.662 0.915,4.297c0.611,0.635 1.852,0.952 3.723,0.952l4.615,-0l-0,3.76l-4.615,-0c-3.466,-0 -5.859,-0.647 -7.177,-1.941c-1.319,-1.294 -1.978,-3.65 -1.978,-7.068l0,-14.844l-3.296,0l0,-3.491l3.296,-0l0,-7.764l4.517,0Z" style="fill-rule:nonzero;"/><path d="M1111.89,419.546l0,-16.553l4.492,-0l0,16.382c0,2.588 0.505,4.529 1.514,5.823c1.009,1.293 2.523,1.94 4.541,1.94c2.425,0 4.342,-0.773 5.749,-2.319c1.408,-1.546 2.112,-3.654 2.112,-6.323l0,-15.503l4.492,-0l0,27.344l-4.492,-0l0,-4.2c-1.09,1.661 -2.356,2.894 -3.796,3.699c-1.441,0.806 -3.113,1.209 -5.017,1.209c-3.142,-0 -5.526,-0.977 -7.154,-2.93c-1.627,-1.953 -2.441,-4.81 -2.441,-8.569Zm11.304,-17.212" style="fill-rule:nonzero;"/><path d="M1159.89,407.192c-0.504,-0.293 -1.054,-0.508 -1.648,-0.647c-0.594,-0.138 -1.249,-0.207 -1.965,-0.207c-2.539,-0 -4.488,0.826 -5.847,2.478c-1.359,1.652 -2.039,4.024 -2.039,7.116l0,14.405l-4.517,-0l0,-27.344l4.517,-0l0,4.248c0.944,-1.66 2.173,-2.893 3.687,-3.699c1.513,-0.805 3.352,-1.208 5.517,-1.208c0.309,-0 0.651,0.02 1.026,0.061c0.374,0.04 0.789,0.101 1.245,0.183l0.024,4.614Z" style="fill-rule:nonzero;"/><path d="M1186.89,415.542l0,2.197l-20.654,0c0.195,3.092 1.127,5.448 2.795,7.068c1.668,1.619 3.992,2.429 6.97,2.429c1.726,0 3.398,-0.212 5.017,-0.635c1.62,-0.423 3.227,-1.058 4.822,-1.904l0,4.248c-1.611,0.684 -3.263,1.204 -4.956,1.563c-1.693,0.358 -3.41,0.537 -5.151,0.537c-4.362,-0 -7.817,-1.27 -10.364,-3.809c-2.547,-2.539 -3.821,-5.973 -3.821,-10.303c0,-4.476 1.209,-8.028 3.626,-10.656c2.417,-2.629 5.676,-3.943 9.778,-3.943c3.678,-0 6.587,1.184 8.728,3.552c2.14,2.368 3.21,5.587 3.21,9.656Zm-4.492,-1.319c-0.033,-2.457 -0.72,-4.419 -2.063,-5.883c-1.343,-1.465 -3.121,-2.198 -5.335,-2.198c-2.506,0 -4.512,0.708 -6.018,2.124c-1.505,1.416 -2.372,3.41 -2.6,5.982l16.016,-0.025Z" style="fill-rule:nonzero;"/><rect x="1210.35" y="393.886" width="4.932" height="36.45" style="fill-rule:nonzero;"/><path d="M1246.19,408.242c1.123,-2.018 2.466,-3.508 4.028,-4.468c1.563,-0.96 3.402,-1.44 5.518,-1.44c2.848,-0 5.045,0.997 6.591,2.99c1.547,1.994 2.32,4.83 2.32,8.509l-0,16.504l-4.517,-0l0,-16.358c0,-2.62 -0.464,-4.565 -1.391,-5.835c-0.928,-1.269 -2.344,-1.904 -4.248,-1.904c-2.328,-0 -4.167,0.773 -5.518,2.319c-1.351,1.547 -2.026,3.654 -2.026,6.324l-0,15.454l-4.517,-0l0,-16.358c0,-2.636 -0.464,-4.586 -1.392,-5.847c-0.927,-1.261 -2.36,-1.892 -4.296,-1.892c-2.295,-0 -4.118,0.777 -5.469,2.332c-1.351,1.554 -2.027,3.658 -2.027,6.311l0,15.454l-4.516,-0l-0,-27.344l4.516,-0l0,4.248c1.026,-1.676 2.255,-2.913 3.687,-3.711c1.432,-0.798 3.133,-1.196 5.102,-1.196c1.986,-0 3.675,0.504 5.066,1.513c1.392,1.01 2.421,2.474 3.089,4.395Z" style="fill-rule:nonzero;"/><path d="M1277.95,426.235l0,14.502l-4.516,0l-0,-37.744l4.516,-0l0,4.15c0.944,-1.627 2.137,-2.836 3.577,-3.625c1.441,-0.79 3.162,-1.184 5.164,-1.184c3.32,-0 6.018,1.318 8.093,3.955c2.075,2.637 3.113,6.103 3.113,10.4c-0,4.297 -1.038,7.764 -3.113,10.401c-2.075,2.636 -4.773,3.955 -8.093,3.955c-2.002,-0 -3.723,-0.395 -5.164,-1.184c-1.44,-0.79 -2.633,-1.998 -3.577,-3.626Zm15.284,-9.546c-0,-3.304 -0.68,-5.896 -2.039,-7.776c-1.359,-1.88 -3.227,-2.82 -5.603,-2.82c-2.376,0 -4.244,0.94 -5.603,2.82c-1.359,1.88 -2.039,4.472 -2.039,7.776c0,3.304 0.68,5.896 2.039,7.776c1.359,1.88 3.227,2.82 5.603,2.82c2.376,-0 4.244,-0.94 5.603,-2.82c1.359,-1.88 2.039,-4.472 2.039,-7.776Z" style="fill-rule:nonzero;"/><rect x="1305.35" y="392.348" width="4.492" height="37.988" style="fill-rule:nonzero;"/><path d="M1342.62,415.542l0,2.197l-20.654,0c0.195,3.092 1.127,5.448 2.795,7.068c1.669,1.619 3.992,2.429 6.971,2.429c1.725,0 3.397,-0.212 5.017,-0.635c1.619,-0.423 3.226,-1.058 4.822,-1.904l-0,4.248c-1.612,0.684 -3.264,1.204 -4.957,1.563c-1.692,0.358 -3.409,0.537 -5.151,0.537c-4.362,-0 -7.816,-1.27 -10.364,-3.809c-2.547,-2.539 -3.82,-5.973 -3.82,-10.303c-0,-4.476 1.208,-8.028 3.625,-10.656c2.417,-2.629 5.676,-3.943 9.778,-3.943c3.678,-0 6.588,1.184 8.728,3.552c2.14,2.368 3.21,5.587 3.21,9.656Zm-4.492,-1.319c-0.032,-2.457 -0.72,-4.419 -2.063,-5.883c-1.343,-1.465 -3.121,-2.198 -5.334,-2.198c-2.507,0 -4.513,0.708 -6.018,2.124c-1.506,1.416 -2.373,3.41 -2.6,5.982l16.015,-0.025Z" style="fill-rule:nonzero;"/><path d="M1371.29,408.242c1.123,-2.018 2.466,-3.508 4.029,-4.468c1.562,-0.96 3.401,-1.44 5.517,-1.44c2.849,-0 5.046,0.997 6.592,2.99c1.546,1.994 2.319,4.83 2.319,8.509l0,16.504l-4.516,-0l-0,-16.358c-0,-2.62 -0.464,-4.565 -1.392,-5.835c-0.927,-1.269 -2.343,-1.904 -4.248,-1.904c-2.327,-0 -4.166,0.773 -5.517,2.319c-1.351,1.547 -2.027,3.654 -2.027,6.324l0,15.454l-4.516,-0l-0,-16.358c-0,-2.636 -0.464,-4.586 -1.392,-5.847c-0.928,-1.261 -2.36,-1.892 -4.297,-1.892c-2.295,-0 -4.118,0.777 -5.469,2.332c-1.35,1.554 -2.026,3.658 -2.026,6.311l0,15.454l-4.517,-0l0,-27.344l4.517,-0l0,4.248c1.025,-1.676 2.254,-2.913 3.687,-3.711c1.432,-0.798 3.133,-1.196 5.102,-1.196c1.986,-0 3.674,0.504 5.066,1.513c1.392,1.01 2.421,2.474 3.088,4.395Z" style="fill-rule:nonzero;"/><path d="M1422.09,415.542l0,2.197l-20.654,0c0.195,3.092 1.127,5.448 2.795,7.068c1.669,1.619 3.992,2.429 6.97,2.429c1.726,0 3.398,-0.212 5.018,-0.635c1.619,-0.423 3.226,-1.058 4.821,-1.904l0,4.248c-1.611,0.684 -3.263,1.204 -4.956,1.563c-1.692,0.358 -3.41,0.537 -5.151,0.537c-4.362,-0 -7.817,-1.27 -10.364,-3.809c-2.547,-2.539 -3.821,-5.973 -3.821,-10.303c0,-4.476 1.209,-8.028 3.626,-10.656c2.417,-2.629 5.676,-3.943 9.778,-3.943c3.678,-0 6.587,1.184 8.728,3.552c2.14,2.368 3.21,5.587 3.21,9.656Zm-4.492,-1.319c-0.033,-2.457 -0.72,-4.419 -2.063,-5.883c-1.343,-1.465 -3.121,-2.198 -5.335,-2.198c-2.506,0 -4.512,0.708 -6.018,2.124c-1.505,1.416 -2.372,3.41 -2.6,5.982l16.016,-0.025Z" style="fill-rule:nonzero;"/><path d="M1452.2,413.833l-0,16.504l-4.493,-0l0,-16.358c0,-2.588 -0.504,-4.525 -1.513,-5.81c-1.009,-1.286 -2.523,-1.929 -4.541,-1.929c-2.425,-0 -4.338,0.773 -5.738,2.319c-1.399,1.547 -2.099,3.654 -2.099,6.324l-0,15.454l-4.517,-0l0,-27.344l4.517,-0l-0,4.248c1.074,-1.644 2.34,-2.873 3.796,-3.687c1.457,-0.813 3.137,-1.22 5.042,-1.22c3.141,-0 5.517,0.972 7.129,2.917c1.611,1.945 2.417,4.806 2.417,8.582Z" style="fill-rule:nonzero;"/><path d="M1465.6,395.229l-0,7.764l9.253,-0l-0,3.491l-9.253,0l-0,14.844c-0,2.23 0.305,3.662 0.915,4.297c0.611,0.635 1.852,0.952 3.724,0.952l4.614,-0l-0,3.76l-4.614,-0c-3.467,-0 -5.86,-0.647 -7.178,-1.941c-1.318,-1.294 -1.978,-3.65 -1.978,-7.068l0,-14.844l-3.296,0l0,-3.491l3.296,-0l0,-7.764l4.517,0Z" style="fill-rule:nonzero;"/><path d="M1493.19,416.592c-3.63,-0 -6.144,0.415 -7.544,1.245c-1.4,0.83 -2.1,2.246 -2.1,4.248c0,1.595 0.525,2.86 1.575,3.796c1.05,0.936 2.478,1.404 4.285,1.404c2.49,-0 4.488,-0.883 5.993,-2.649c1.506,-1.766 2.259,-4.114 2.259,-7.043l-0,-1.001l-4.468,-0Zm8.96,-1.856l-0,15.601l-4.492,-0l-0,-4.151c-1.026,1.66 -2.303,2.885 -3.833,3.675c-1.53,0.789 -3.402,1.184 -5.616,1.184c-2.799,-0 -5.025,-0.786 -6.677,-2.356c-1.652,-1.571 -2.478,-3.675 -2.478,-6.311c0,-3.076 1.03,-5.396 3.088,-6.958c2.059,-1.563 5.132,-2.344 9.217,-2.344l6.299,-0l-0,-0.44c-0,-2.067 -0.68,-3.666 -2.039,-4.797c-1.359,-1.131 -3.267,-1.697 -5.725,-1.697c-1.563,0 -3.084,0.187 -4.565,0.562c-1.482,0.374 -2.906,0.936 -4.273,1.684l0,-4.15c1.644,-0.635 3.239,-1.111 4.785,-1.428c1.546,-0.318 3.052,-0.476 4.517,-0.476c3.955,-0 6.909,1.025 8.862,3.076c1.953,2.051 2.93,5.159 2.93,9.326Z" style="fill-rule:nonzero;"/><path d="M1515.84,395.229l0,7.764l9.253,-0l0,3.491l-9.253,0l0,14.844c0,2.23 0.305,3.662 0.916,4.297c0.61,0.635 1.851,0.952 3.723,0.952l4.614,-0l0,3.76l-4.614,-0c-3.467,-0 -5.86,-0.647 -7.178,-1.941c-1.318,-1.294 -1.977,-3.65 -1.977,-7.068l-0,-14.844l-3.296,0l-0,-3.491l3.296,-0l-0,-7.764l4.516,0Z" style="fill-rule:nonzero;"/><path d="M1531,402.993l4.492,-0l0,27.344l-4.492,-0l0,-27.344Zm0,-10.645l4.492,0l0,5.689l-4.492,-0l0,-5.689Z" style="fill-rule:nonzero;"/><path d="M1555.49,406.142c-2.409,0 -4.314,0.94 -5.713,2.82c-1.4,1.88 -2.1,4.456 -2.1,7.727c0,3.272 0.696,5.847 2.087,7.727c1.392,1.88 3.3,2.82 5.726,2.82c2.392,0 4.288,-0.944 5.688,-2.832c1.4,-1.888 2.1,-4.46 2.1,-7.715c-0,-3.239 -0.7,-5.806 -2.1,-7.702c-1.4,-1.897 -3.296,-2.845 -5.688,-2.845Zm-0,-3.808c3.906,-0 6.974,1.269 9.204,3.808c2.229,2.539 3.344,6.055 3.344,10.547c0,4.476 -1.115,7.988 -3.344,10.535c-2.23,2.547 -5.298,3.821 -9.204,3.821c-3.923,-0 -6.995,-1.274 -9.217,-3.821c-2.221,-2.547 -3.332,-6.059 -3.332,-10.535c-0,-4.492 1.111,-8.008 3.332,-10.547c2.222,-2.539 5.294,-3.808 9.217,-3.808Z" style="fill-rule:nonzero;"/><path d="M1598.22,413.833l0,16.504l-4.492,-0l-0,-16.358c-0,-2.588 -0.505,-4.525 -1.514,-5.81c-1.009,-1.286 -2.522,-1.929 -4.541,-1.929c-2.425,-0 -4.337,0.773 -5.737,2.319c-1.4,1.547 -2.1,3.654 -2.1,6.324l0,15.454l-4.516,-0l-0,-27.344l4.516,-0l0,4.248c1.075,-1.644 2.34,-2.873 3.797,-3.687c1.456,-0.813 3.137,-1.22 5.041,-1.22c3.142,-0 5.518,0.972 7.129,2.917c1.611,1.945 2.417,4.806 2.417,8.582Z" style="fill-rule:nonzero;"/><path d="M1624.61,403.799l-0,4.248c-1.27,-0.651 -2.588,-1.14 -3.955,-1.465c-1.368,-0.326 -2.784,-0.489 -4.248,-0.489c-2.23,0 -3.903,0.342 -5.017,1.026c-1.115,0.683 -1.673,1.709 -1.673,3.076c0,1.042 0.399,1.86 1.196,2.454c0.798,0.594 2.401,1.159 4.81,1.696l1.538,0.342c3.19,0.684 5.457,1.648 6.799,2.893c1.343,1.245 2.015,2.983 2.015,5.213c-0,2.539 -1.005,4.549 -3.016,6.03c-2.01,1.481 -4.772,2.222 -8.288,2.222c-1.465,-0 -2.991,-0.143 -4.578,-0.428c-1.587,-0.284 -3.259,-0.712 -5.017,-1.281l0,-4.639c1.66,0.863 3.296,1.51 4.907,1.941c1.612,0.431 3.207,0.647 4.786,0.647c2.115,-0 3.743,-0.362 4.882,-1.087c1.14,-0.724 1.709,-1.745 1.709,-3.063c0,-1.221 -0.411,-2.157 -1.233,-2.808c-0.822,-0.651 -2.624,-1.278 -5.407,-1.88l-1.563,-0.366c-2.783,-0.586 -4.793,-1.485 -6.03,-2.698c-1.237,-1.213 -1.856,-2.877 -1.856,-4.993c0,-2.571 0.912,-4.557 2.735,-5.957c1.823,-1.399 4.411,-2.099 7.764,-2.099c1.66,-0 3.222,0.122 4.687,0.366c1.465,0.244 2.816,0.61 4.053,1.099Z" style="fill-rule:nonzero;"/></svg>