<?xml version="1.0" encoding="UTF-8" standalone="no"?><!DOCTYPE svg PUBLIC "-//W3C//DTD SVG 1.1//EN" "http://www.w3.org/Graphics/SVG/1.1/DTD/svg11.dtd"><svg width="100%" height="100%" viewBox="0 0 2063 945" version="1.1" xmlns="http://www.w3.org/2000/svg" xmlns:xlink="http://www.w3.org/1999/xlink" xml:space="preserve" xmlns:serif="http://www.serif.com/" style="fill-rule:evenodd;clip-rule:evenodd;stroke-linecap:round;stroke-linejoin:round;stroke-miterlimit:1.5;"><g><g><g><path d="M296.56,125.603l153.566,88.661l-0,177.323l-153.566,-88.661l0,-177.323Z" style="fill:none;stroke:#fff;stroke-width:12.5px;"/><path d="M295.06,328.066c-4.963,-0.726 -10.006,-0.726 -14.97,-0l-1.853,10.861c-4.44,1.029 -8.68,2.785 -12.547,5.196l-8.992,-6.369c-4.024,2.996 -7.589,6.561 -10.586,10.584l6.371,8.99c-2.412,3.867 -4.168,8.106 -5.197,12.545l-10.863,1.853c-0.726,4.963 -0.726,10.005 -0,14.968l10.863,1.853c1.029,4.44 2.785,8.678 5.197,12.545l-6.371,8.991c2.997,4.022 6.562,7.588 10.586,10.583l8.992,-6.369c3.867,2.411 8.107,4.167 12.547,5.196l1.853,10.861c4.964,0.726 10.007,0.726 14.97,0l1.854,-10.861c4.44,-1.029 8.68,-2.785 12.547,-5.196l8.992,6.369c4.023,-2.995 7.589,-6.561 10.585,-10.583l-6.37,-8.991c2.412,-3.867 4.168,-8.105 5.197,-12.545l10.863,-1.853c0.726,-4.963 0.726,-10.005 -0,-14.968l-10.863,-1.853c-1.029,-4.439 -2.785,-8.678 -5.197,-12.545l6.37,-8.99c-2.996,-4.023 -6.562,-7.588 -10.585,-10.584l-8.992,6.369c-3.867,-2.411 -8.107,-4.167 -12.547,-5.196l-1.854,-10.861Zm-7.485,40.806c5.707,0 10.34,4.633 10.34,10.338c-0,5.706 -4.633,10.338 -10.34,10.338c-5.706,-0 -10.339,-4.632 -10.339,-10.338c-0,-5.705 4.633,-10.338 10.339,-10.338Z" style="fill:none;stroke:#fff;stroke-width:12.5px;"/><path d="M280.796,302.926l0,-177.323l-153.566,88.661l0,177.323l153.566,-88.661" style="fill:none;stroke:#fff;stroke-width:12.5px;"/><path d="M265.847,285.193c-10.238,-35.464 -15.762,-113.473 -24.276,-108.546c-13.724,7.942 -4.203,124.562 -21.794,135.145c-11.819,7.11 -25.117,-21.167 -35.258,-15.109c-7.306,4.366 -4.418,33.577 -10.811,41.707c-6.329,8.047 -20.476,0 -30.714,0" style="fill:none;stroke:#fff;stroke-width:16.67px;"/><path d="M311.917,294.06c20.878,-24.51 40.596,-100.688 50.834,-94.777c10.237,5.911 7.273,100.782 19.088,125.336c9.268,19.261 47.036,36.967 47.036,36.967" style="fill:none;stroke:#fff;stroke-width:16.67px;"/><path d="M394.306,53.285l50.478,36.854l-49.514,38.139l-0.964,-74.993Z" style="fill:#fff;"/><path d="M90.139,427.051l1.443,-336.912c94.923,1.606 199.041,1.82 313.205,0.514" style="fill:none;stroke:#fff;stroke-width:16.67px;"/><path d="M175.603,500.016l-50,-37.5l50,-37.5l0,75Z" style="fill:#fff;"/><path d="M480.248,125.603l0,336.913l-314.645,-0" style="fill:none;stroke:#fff;stroke-width:16.67px;"/></g><g transform="matrix(0.594747,0,0,0.594747,389.009,-941.724)"><text x="165.354px" y="2267.72px" style="font-family:'Futura-Medium', 'Futura', sans-serif;font-weight:500;font-size:593.595px;fill:#5a0968;">aut<tspan x="1011.11px " y="2267.72px ">o</tspan></text><text x="1367.9px" y="2267.72px" style="font-family:'Futura-Medium', 'Futura', sans-serif;font-weight:500;font-size:593.595px;fill:#a82fbd;">DEER</text></g></g><g><g><g><path d="M406.915,477.323l37.869,27.627l-37.126,28.618l-0.743,-56.245Z" style="fill:#fff;"/><path d="M90.139,841.862l1.443,-336.912c97.688,1.653 205.113,1.832 323.204,0.396" style="fill:none;stroke:#fff;stroke-width:12.5px;"/><path d="M163.103,905.452l-37.5,-28.125l37.5,-28.125l0,56.25Z" style="fill:#fff;"/><path d="M480.248,540.414l0,336.913l-324.645,-0" style="fill:none;stroke:#fff;stroke-width:12.5px;"/></g><g transform="matrix(0.594747,0,0,0.594747,389.009,-526.913)"><text x="165.354px" y="2267.72px" style="font-family:'Futura-Medium', 'Futura', sans-serif;font-weight:500;font-size:593.595px;fill:#3b6809;">aut<tspan x="1011.11px " y="2267.72px ">o</tspan></text><text x="1367.9px" y="2267.72px" style="font-family:'Futura-Medium', 'Futura', sans-serif;font-weight:500;font-size:593.595px;fill:#6d973e;">EPR</text></g></g><g><path d="M220.33,822.723l-0,-57.56l13.11,0l0,-82.257l-13.11,-0l-0,-57.56l-52.682,0l-0,197.377l52.682,-0Z" style="fill:#fff;stroke:#fff;stroke-width:12.5px;"/><path d="M345.239,822.723l-0,-57.56l-13.11,0l-0,-82.257l13.11,-0l-0,-57.56l52.682,0l-0,197.377l-52.682,-0Z" style="fill:#fff;stroke:#fff;stroke-width:12.5px;"/><rect x="264.812" y="625.346" width="41.824" height="177.019" style="fill:#fff;stroke:#fff;stroke-width:12.5px;"/><path d="M266.336,559.554l80.601,-0" style="fill:none;stroke:#fff;stroke-width:4.17px;"/><rect x="153.674" y="559.554" width="106.536" height="32.896" style="fill:#fff;stroke:#fff;stroke-width:12.5px;"/><rect x="346.937" y="559.554" width="67.357" height="32.896" style="fill:#fff;stroke:#fff;stroke-width:12.5px;"/><circle cx="260.21" cy="590.805" r="1.645"/><path d="M266.336,576.002l19.388,-0l0,49.344" style="fill:none;stroke:#fff;stroke-width:4.17px;"/><path d="M285.724,731.792l0,-97.604" style="fill:none;stroke:#fff;stroke-width:2.08px;"/><path d="M285.724,731.792l0,-12.441" style="fill:none;stroke:#fff;stroke-width:4.17px;"/></g></g></g></svg>